<svg xmlns="http://www.w3.org/2000/svg" xmlns:xlink="http://www.w3.org/1999/xlink" version="1.1" id="Layer_1" x="0px" y="0px" viewBox="0 0 150 150" style="enable-background:new 0 0 150 150;" xml:space="preserve">
    <style type="text/css">
        .st0{clip-path:url(#SVGID_00000041279532667685094200000002781983069140343227_);fill:#FFF200;}
        .st1{clip-path:url(#SVGID_00000041279532667685094200000002781983069140343227_);fill:#005BAA;}
        .st2{fill:#005BAA;}
    </style>
    <g>
        <defs>
            <rect id="SVGID_1_" x="3.1" y="22.53" width="142.87" height="104.27"/>
        </defs>
        <clipPath id="SVGID_00000054247006122485337740000016053000970364273280_">
            <use xlink:href="#SVGID_1_" style="overflow:visible;"/>
        </clipPath>
        <path style="clip-path:url(#SVGID_00000054247006122485337740000016053000970364273280_);fill:#FFF200;" d="M13.38,77.27   c0-18.1,22.44-35.47,54.56-35.47c32.12,0,58.17,14.67,58.17,32.77s-25.99,36.33-56.95,37.9c-1.14,0.06-2.28-0.02-3.41-0.06   c26.97-0.95,47.13-19.08,47.13-34.98c0-16.52-23.06-29.91-51.5-29.91C33.37,47.52,14.08,61.1,13.38,77.27   C13.31,76.57,13.38,77.97,13.38,77.27"/>
        <polygon style="clip-path:url(#SVGID_00000054247006122485337740000016053000970364273280_);fill:#005BAA;" points="10.29,103.43    11.95,96.05 7.04,96.05 5.38,103.43  "/>
        <polygon style="clip-path:url(#SVGID_00000054247006122485337740000016053000970364273280_);fill:#005BAA;" points="45.67,103.43    47.32,96.05 42.41,96.05 40.76,103.43  "/>
        <polygon style="clip-path:url(#SVGID_00000054247006122485337740000016053000970364273280_);fill:#005BAA;" points="50.12,75.41    62.45,75.41 59.3,89.45 50.47,103.43 57.48,103.43 66.03,90.41 70.89,68.75 58.26,68.75 59.23,64.43 52.58,64.43  "/>
        <polygon style="clip-path:url(#SVGID_00000054247006122485337740000016053000970364273280_);fill:#005BAA;" points="70.01,103.43    71.66,96.05 66.76,96.05 65.1,103.43  "/>
        <polygon style="clip-path:url(#SVGID_00000054247006122485337740000016053000970364273280_);fill:#005BAA;" points="80.08,68.75    82.7,82.43 75.96,87.11 72.3,103.43 78.94,103.43 82.16,89.09 83.77,88.07 86.61,103.43 93.61,103.43 90.76,89.45 97.37,85.07    101.03,68.75 94.39,68.75 91.24,82.79 89.7,83.75 87.09,68.75  "/>
        <polygon style="clip-path:url(#SVGID_00000054247006122485337740000016053000970364273280_);fill:#005BAA;" points="12.58,103.43    19.58,103.43 34.57,75.05 29.7,96.77 25.39,96.77 23.89,103.43 34.85,103.43 42.63,68.75 30.66,68.75 24.31,80.75 27.01,68.75    20.36,68.75 17.44,81.77 23.79,81.77  "/>
        <path style="clip-path:url(#SVGID_00000054247006122485337740000016053000970364273280_);fill:#005BAA;" d="M12.74,73.89   c0-20.94,26.52-40.61,63.67-40.61c37.16,0,67.28,16.97,67.28,37.91c0,20.94-28.91,43.04-66.07,43.04c-1.33,0-2.64-0.02-3.95-0.07   c31.2-1.09,54.7-21.27,54.7-39.66c0-19.11-26.67-34.6-59.57-34.6c-32.39,0-55.13,17.71-55.94,36.41   C12.79,75.52,12.74,74.71,12.74,73.89"/>
    </g>
    <g>
        <path class="st2" d="M10.24,111.24c0,0.75-0.07,1.37-0.22,1.85c-0.15,0.48-0.42,1.02-0.82,1.63l-0.94,1.43H6.42v-0.29l1.22-1.87   c0.34-0.53,0.57-0.95,0.68-1.27c0.11-0.36,0.17-0.83,0.17-1.41v-1.09h-3.3v-4.04h1.74v2.17h3.3V111.24z M16.73,113.39   c0,0.86-0.21,1.53-0.63,2.03c-0.42,0.49-1,0.74-1.74,0.74h-1.04c-0.73,0-1.28-0.23-1.67-0.69c-0.37-0.43-0.55-1.02-0.55-1.78v-5.36   h1.72v5.26c0,0.52,0.19,0.77,0.56,0.77h1.03c0.4,0,0.59-0.26,0.59-0.79v-3.52c-0.12,0-0.21,0.03-0.28,0.1l-0.85,0.87h-0.23v-1.92   l0.38-0.37c0.27-0.27,0.63-0.4,1.08-0.4h1.62V113.39z M19.81,113.03h-1.75v-2.97h-0.74v-1.72h2.48V113.03z M24.04,116.13h-1.56   l-0.1-1.83c0-0.07-0.02-0.07-0.05,0l-0.1,0.33c-0.12,0.38-0.3,0.7-0.55,0.96c-0.29,0.29-0.7,0.53-1.26,0.72l-0.09,0.03v-1.88   l0.14-0.08c0.42-0.23,0.76-0.44,1.03-0.64c0.34-0.26,0.54-0.47,0.63-0.63c0.11-0.22,0.17-0.54,0.17-0.96v-1.94h-1.72v-1.87h3.47   V116.13z M27.12,113.03h-1.75v-2.97h-0.74v-1.72h2.48V113.03z M33.05,110.2h-0.78v5.93h-1.74v-5.93H27.7v-1.87h5.35V110.2z    M36.07,116.13h-1.75v-5.93h-0.67v-1.87h2.42V116.13z M43.73,111.24c0,0.75-0.07,1.37-0.22,1.85c-0.15,0.48-0.42,1.02-0.82,1.63   l-0.94,1.43h-1.83v-0.29l1.22-1.87c0.34-0.53,0.57-0.95,0.68-1.27c0.11-0.36,0.17-0.83,0.17-1.41v-1.09h-3.3v-4.04h1.74v2.17h3.3   V111.24z M50.31,113.89c0,1.5-0.57,2.24-1.7,2.24h-1.26v-1.83h0.87c0.23,0,0.35-0.14,0.35-0.43v-3.7h-1.73l-0.48,5.96h-1.77   l0.56-5.93H44.3v-1.87h6V113.89z M58.64,112.78c0,2.29-1,3.43-2.99,3.43h-1.64c-0.95,0-1.65-0.24-2.11-0.72   c-0.48-0.5-0.72-1.29-0.72-2.38v-4.77h1.67v5.03c0,0.79,0.32,1.18,0.96,1.18h0.3v-6.21h1.61v6.21h0.23c0.69,0,1.03-0.42,1.03-1.26   v-4.96h1.67V112.78z M65.15,116.13h-1.74v-5.93h-2.15v5.93h-1.74v-7.8h5.63V116.13z"/>
    </g>
</svg>