<?xml version="1.0" encoding="utf-8"?>
<!-- Generator: Adobe Illustrator 28.1.0, SVG Export Plug-In . SVG Version: 6.00 Build 0)  -->
<svg version="1.1" id="Layer_1" xmlns="http://www.w3.org/2000/svg" xmlns:xlink="http://www.w3.org/1999/xlink" x="0px" y="0px"
	 viewBox="0 0 47.3 34.3" style="enable-background:new 0 0 47.3 34.3;" xml:space="preserve">
<style type="text/css">
	.st0{fill:#F90910;}
	.st1{fill:none;stroke:#FFFFFF;stroke-width:1.5;}
</style>
<path id="Path_4" class="st0" d="M38,34.3c-1.4,0-2.9-0.2-4.3-0.5c-8.1-1.6-15.6-4.2-24.9-7.8C0.8,23,0,18.1,0,16.1
	c0.2-3.6,2.6-6.7,6-7.8c4.5-1.6,11.6-4.2,21.4-7.5c3-1.2,6.3-1.2,9.2,0.2c2.9,1.4,5,4.2,6.4,8.3l0.4,1.1c1.3,3.9,1.6,4.7,3.4,11.6
	c1.4,5.2,0,8.1-1.5,9.6C44.1,33,41.9,34.3,38,34.3"/>
<g id="Group_67" transform="translate(-1871.5 -42.75)">
	<line id="Line_13" class="st1" x1="1887.3" y1="53.6" x2="1907.8" y2="53.6"/>
	<line id="Line_14" class="st1" x1="1887.3" y1="58.9" x2="1907.8" y2="58.9"/>
	<line id="Line_15" class="st1" x1="1887.3" y1="64.2" x2="1907.8" y2="64.2"/>
</g>
</svg>
