
<svg xmlns="http://www.w3.org/2000/svg" xmlns:xlink="http://www.w3.org/1999/xlink" width="480.685" height="218.103" viewBox="0 0 480.685 218.103">
  <defs>
    <clipPath id="clip-path">
      <rect id="Rectangle_4" data-name="Rectangle 4" width="480.685" height="218.103" fill="none"/>
    </clipPath>
  </defs>
  <g id="Group_6" data-name="Group 6" transform="translate(0 0)">
    <g id="Group_5" data-name="Group 5" transform="translate(0 0)" clip-path="url(#clip-path)">
      <path id="Path_3" data-name="Path 3" d="M80.216.535A.458.458,0,1,1,79.31.51a.458.458,0,1,1,.905.025" transform="translate(203.398 -0.001)" fill="#fcfcfc"/>
      <path id="Path_4" data-name="Path 4" d="M108.395.477q.246.021.257.471a.2.2,0,0,1-.193.2c-.157,0-.267-.111-.335-.335a.272.272,0,0,1,.185-.332.233.233,0,0,1,.086-.007" transform="translate(277.269 1.219)" fill="#fcfcfc"/>
      <path id="Path_5" data-name="Path 5" d="M91.09.875A.247.247,0,0,1,91.4.733l.05.029a.537.537,0,0,1,.246.756.365.365,0,0,1-.492.153.369.369,0,0,1-.168-.185.8.8,0,0,1,.05-.61" transform="translate(233.377 1.84)" fill="#fcfcfc"/>
      <path id="Path_6" data-name="Path 6" d="M109.6,2.713a.2.2,0,0,1,.093-.26.226.226,0,0,1,.107-.018l.26.032a.226.226,0,0,1,.164.107,2.128,2.128,0,0,1,.4,1.134.315.315,0,0,1-.132.289.237.237,0,0,1-.378-.125Z" transform="translate(281.022 6.241)" fill="#fcfcfc"/>
      <path id="Path_7" data-name="Path 7" d="M110.414,3.6c.143-.086.278.025.41.328a.2.2,0,0,1-.082.274c-.157.107-.278.121-.371.046a.4.4,0,0,1-.053-.563.315.315,0,0,1,.1-.086" transform="translate(282.682 9.16)" fill="#fcfcfc"/>
      <path id="Path_8" data-name="Path 8" d="M37.688,3.587a.49.49,0,1,1-.492.492.493.493,0,0,1,.492-.492" transform="translate(95.393 9.198)" fill="#fcfcfc"/>
      <path id="Path_9" data-name="Path 9" d="M86.685,4.619a.513.513,0,0,1,.207.688.555.555,0,1,1-.207-.688" transform="translate(220.319 11.585)" fill="#fcfcfc"/>
      <path id="Path_10" data-name="Path 10" d="M71.965,4.707a.388.388,0,0,1,.545-.078.372.372,0,0,1,.121.146.946.946,0,0,1,.064.638.279.279,0,0,1-.332.2.305.305,0,0,1-.086-.039c-.438-.274-.545-.563-.314-.866" transform="translate(184.255 11.668)" fill="#fcfcfc"/>
      <path id="Path_11" data-name="Path 11" d="M106.372,4.891a.383.383,0,1,1-.385.385.386.386,0,0,1,.385-.385" transform="translate(271.813 12.543)" fill="#fcfcfc"/>
      <path id="Path_12" data-name="Path 12" d="M26.327,5.939a1.435,1.435,0,0,1-.731.014.32.32,0,0,1-.168-.4.818.818,0,0,1,.61-.6.4.4,0,0,1,.478.282.806.806,0,0,1,.082.41.345.345,0,0,1-.271.289" transform="translate(65.165 12.699)" fill="#fcfcfc"/>
      <path id="Path_13" data-name="Path 13" d="M49.726,5.428a1.452,1.452,0,0,1,2.032-.05,1.452,1.452,0,0,1-.332,2.007,1.449,1.449,0,0,1-2.032.046,1.447,1.447,0,0,1,.332-2" transform="translate(125.973 12.793)" fill="#fcfcfc"/>
      <path id="Path_14" data-name="Path 14" d="M66.448,5.616a.334.334,0,0,1,.282-.381.291.291,0,0,1,.1,0c.485.068.649.324.488.77a.285.285,0,0,1-.364.175l-.011-.007a.7.7,0,0,1-.492-.553" transform="translate(170.401 13.408)" fill="#fcfcfc"/>
      <path id="Path_15" data-name="Path 15" d="M65.416,5.887c.171.257.168.56,0,.67s-.446,0-.617-.264-.168-.56,0-.67.446.007.617.264" transform="translate(165.851 14.31)" fill="#fcfcfc"/>
      <path id="Path_16" data-name="Path 16" d="M109.951,6.07a.36.36,0,0,1,.506.036.348.348,0,0,1,.053.086.532.532,0,0,1-.118.627.378.378,0,0,1-.531.032.238.238,0,0,1-.061-.071c-.168-.242-.118-.478.15-.709" transform="translate(281.348 15.342)" fill="#fcfcfc"/>
      <path id="Path_17" data-name="Path 17" d="M102.771,8.31a.59.59,0,0,1-.51.659l-.331.046c-1.08.139-2.032-.349-2.128-1.084V7.925l-.018-.15c-.093-.738.706-1.447,1.782-1.583l0,0,.328-.036a.589.589,0,0,1,.659.51Z" transform="translate(255.887 15.768)" fill="#fcfcfc"/>
      <path id="Path_18" data-name="Path 18" d="M101.8,6.541a1.072,1.072,0,0,1,.057.171c.064.3-.061.367-.364.207a.984.984,0,0,1-.271-.264.231.231,0,0,1-.039-.239c.1-.214.25-.246.46-.089a.412.412,0,0,1,.157.214" transform="translate(259.439 15.973)" fill="#fcfcfc"/>
      <path id="Path_19" data-name="Path 19" d="M30.666,11l-.385-.553a.791.791,0,0,1-.135-.542l.307-2.634a.359.359,0,0,1,.3-.31l2.171-.371a.746.746,0,0,1,.627.182c1.49,1.3,2.363,3.461,1.109,5.279-.567.809-1.889,1.073-2.869,1.615a.762.762,0,0,1-.888-.057c-.2-.143-.2-.285,0-.435a1.463,1.463,0,0,0,.467-.446.285.285,0,0,0-.182-.438,5.481,5.481,0,0,1-1.019-.46.777.777,0,0,1-.257-.385.251.251,0,0,1,.2-.3.275.275,0,0,1,.143.007.7.7,0,0,0,.282.071.183.183,0,0,0,.153-.185L30.666,11" transform="translate(76.682 16.883)" fill="#fcfcfc"/>
      <path id="Path_20" data-name="Path 20" d="M118.328,6.867a.428.428,0,1,1-.428.428.429.429,0,0,1,.428-.428" transform="translate(302.365 17.61)" fill="#fcfcfc"/>
      <path id="Path_21" data-name="Path 21" d="M94.472,8.592a.491.491,0,0,1-.193.667h0l-.478.264a1.246,1.246,0,0,1-1.715-.371l-.114-.207a1.245,1.245,0,0,1,.61-1.647l.478-.267a.493.493,0,0,1,.667.2Z" transform="translate(235.541 17.878)" fill="#fcfcfc"/>
      <path id="Path_22" data-name="Path 22" d="M74.613,7.085a.25.25,0,0,1,.421.214.876.876,0,0,1-.157.421.275.275,0,0,1-.5-.082c-.057-.182.021-.367.232-.553" transform="translate(190.711 17.995)" fill="#fcfcfc"/>
      <path id="Path_23" data-name="Path 23" d="M121.918,7.744a.338.338,0,0,1,.438-.175l.053.029a.8.8,0,0,1,.321.417.408.408,0,0,1-.485.52c-.4-.093-.51-.356-.328-.791" transform="translate(312.452 19.343)" fill="#fcfcfc"/>
      <path id="Path_24" data-name="Path 24" d="M74.258,7.685c.118-.111.2-.086.246.068.118.41-.007.642-.371.7a.251.251,0,0,1-.3-.214A.264.264,0,0,1,73.92,8Z" transform="translate(189.354 19.534)" fill="#fcfcfc"/>
      <path id="Path_25" data-name="Path 25" d="M41.5,7.795c.2-.143.438-.157.528-.029s0,.346-.2.488-.438.157-.528.029,0-.346.2-.488" transform="translate(105.838 19.691)" fill="#fcfcfc"/>
      <path id="Path_26" data-name="Path 26" d="M59.816,7.828a1.189,1.189,0,1,1-1.187,1.187,1.187,1.187,0,0,1,1.187-1.187" transform="translate(150.359 20.075)" fill="#fcfcfc"/>
      <path id="Path_27" data-name="Path 27" d="M37.422,8.076a.536.536,0,0,1,.4-.057c.563.139.6.421.114.848-.164.143-.36.1-.592-.132a.424.424,0,0,1,0-.6.556.556,0,0,1,.071-.057" transform="translate(95.462 20.525)" fill="#fcfcfc"/>
      <path id="Path_28" data-name="Path 28" d="M52.92,8.063a.346.346,0,1,1-.335.421.381.381,0,0,1,.335-.421" transform="translate(134.842 20.646)" fill="#fcfcfc"/>
      <path id="Path_29" data-name="Path 29" d="M82.743,8.539a.8.8,0,0,1-.749.171.314.314,0,0,1-.178-.406.3.3,0,0,1,.146-.168.726.726,0,0,1,.766.025.222.222,0,0,1,.082.3.228.228,0,0,1-.068.075" transform="translate(209.768 20.615)" fill="#fcfcfc"/>
      <path id="Path_30" data-name="Path 30" d="M102.953,8.605a.426.426,0,1,1-.349-.542.459.459,0,0,1,.349.542" transform="translate(261.879 20.67)" fill="#fcfcfc"/>
      <path id="Path_31" data-name="Path 31" d="M57.032,8.075a.686.686,0,1,1-.684.684.685.685,0,0,1,.684-.684" transform="translate(144.51 20.708)" fill="#fcfcfc"/>
      <path id="Path_32" data-name="Path 32" d="M83.924,9.449c-.267.51-.706.809-.984.663s-.285-.674-.021-1.187.709-.809.984-.663.289.677.021,1.187" transform="translate(212.158 21.092)" fill="#fcfcfc"/>
      <path id="Path_33" data-name="Path 33" d="M24.863,8.35a.349.349,0,0,1,.577.125.578.578,0,0,1-.135.681.376.376,0,0,1-.528-.018A.4.4,0,0,1,24.7,9a.6.6,0,0,1,.164-.652" transform="translate(63.247 21.15)" fill="#fcfcfc"/>
      <path id="Path_34" data-name="Path 34" d="M29.649,8.381a1.12,1.12,0,0,1,.553-.1.154.154,0,0,1,.128.171.147.147,0,0,1-.053.086c-.257.214-.478.257-.659.125-.164-.118-.153-.21.032-.282" transform="translate(75.66 21.222)" fill="#fcfcfc"/>
      <path id="Path_35" data-name="Path 35" d="M82.371,8.5a.43.43,0,0,1,.567-.214.456.456,0,0,1,.182.157.688.688,0,0,1,.125.61.428.428,0,0,1-.549.253.405.405,0,0,1-.135-.082.586.586,0,0,1-.189-.724" transform="translate(211.102 21.156)" fill="#fcfcfc"/>
      <path id="Path_36" data-name="Path 36" d="M82.1,14.583a2.439,2.439,0,0,1,.321-2.766,6.652,6.652,0,0,0,1.027-2.039.471.471,0,0,1,.453-.332c.916-.064,2.727-.392,3.426.9a.476.476,0,0,0,.31.257c.225.05.3-.036.232-.257A1.486,1.486,0,0,1,88.243,8.7c.257-.246.5-.264.716-.064a.419.419,0,0,1,.132.485c-.381,1.155.31,1.793,1.077,2.7a1.146,1.146,0,0,1,.257.538,2.111,2.111,0,0,1-.225,1.233.566.566,0,0,0,.075.574,3.038,3.038,0,0,1,.478,1.886.289.289,0,0,1-.214.3.546.546,0,0,1-.2-.021.217.217,0,0,1-.157-.16,1.947,1.947,0,0,0-.61-1.1.819.819,0,0,0-.913-.207,1.714,1.714,0,0,0-.684.6.778.778,0,0,1-.453.321l-1.5.371a.783.783,0,0,1-.453-.025q-.946-.348-1.237.52a.529.529,0,0,1-.67.335.456.456,0,0,1-.086-.039q-1.166-.652-1.7-.4a.43.43,0,0,1-.581-.2.379.379,0,0,1-.043-.153,1.1,1.1,0,0,1,.684-1.173.312.312,0,0,0,.171-.442" transform="translate(208.356 21.792)" fill="#fcfcfc"/>
      <path id="Path_37" data-name="Path 37" d="M30.044,8.748c.289-.164.588-.189.663-.057s-.1.374-.392.538-.585.189-.659.057.1-.374.389-.538" transform="translate(76.01 22.071)" fill="#fcfcfc"/>
      <path id="Path_38" data-name="Path 38" d="M65.58,8.71a.354.354,0,0,1,.442,0,.435.435,0,0,1,.068.667.388.388,0,0,1-.478.121c-.417-.2-.428-.46-.032-.788" transform="translate(167.445 22.137)" fill="#fcfcfc"/>
      <path id="Path_39" data-name="Path 39" d="M84.77,14.054a1.518,1.518,0,0,0,.667.485c.2.046.235.146.1.3a.412.412,0,0,1-.3.132.36.36,0,0,1-.321-.16l-.563-.848a.346.346,0,0,1,.1-.535,2.486,2.486,0,0,0,.774-1.048.684.684,0,0,0,0-.567L84.1,9.242a.294.294,0,0,1,.121-.406l.132-.089a.085.085,0,0,1,.118.011A1.389,1.389,0,0,1,84.9,9.873a1.334,1.334,0,0,0,.114.652l.677,1.561a.494.494,0,0,1-.125.617l-.773.716a.394.394,0,0,0-.025.634" transform="translate(215.597 22.382)" fill="#fcfcfc"/>
      <path id="Path_40" data-name="Path 40" d="M113.589,15.544l-1.24-1.861a.79.79,0,0,1-.111-.592,7.237,7.237,0,0,1,2.42-4,.654.654,0,0,1,.528-.171l2.039.239a1.265,1.265,0,0,1,1.112,1.226l.057,2.189a.9.9,0,0,1-.2.61q-.289.385-1.28,1.625c-.813,1.012-1.5.987-2.805,1.005a.579.579,0,0,1-.517-.271" transform="translate(287.802 22.867)" fill="#fcfcfc"/>
      <path id="Path_41" data-name="Path 41" d="M42.224,10.617a1.195,1.195,0,1,1-2.338-.346,1.195,1.195,0,1,1,2.338.346" transform="translate(102.246 23.278)" fill="#fcfcfc"/>
      <path id="Path_42" data-name="Path 42" d="M128.566,9.089c.289-.114.453-.014.492.3a1.182,1.182,0,0,1-.271.962.527.527,0,0,1-.913-.257c-.089-.46.143-.791.692-1" transform="translate(327.898 23.191)" fill="#fcfcfc"/>
      <path id="Path_43" data-name="Path 43" d="M21.213,10.325a4.777,4.777,0,0,1,.4,1.718.963.963,0,0,1-.3.6L19.495,14.5a.7.7,0,0,1-.613.214l-1.515-.178a.506.506,0,0,1-.478-.428l-.524-2.281a.887.887,0,0,1,.175-.528c.467-.813,2.3-2.467,3.515-2.182a1.674,1.674,0,0,1,1.158,1.212" transform="translate(41.955 23.288)" fill="#fcfcfc"/>
      <path id="Path_44" data-name="Path 44" d="M31.763,9.446c.078-.185.189-.2.328-.057a.541.541,0,0,1,.118.5.206.206,0,0,1-.239.175.216.216,0,0,1-.143-.093.528.528,0,0,1-.064-.528" transform="translate(81.348 23.829)" fill="#fcfcfc"/>
      <path id="Path_45" data-name="Path 45" d="M64.025,9.337a.34.34,0,1,1-.339.339.338.338,0,0,1,.339-.339" transform="translate(163.329 23.945)" fill="#fcfcfc"/>
      <path id="Path_46" data-name="Path 46" d="M61.97,12.491C61.26,10.37,63.317,8.623,65,10.448a1.413,1.413,0,0,1-.075,2,1.453,1.453,0,0,1-.421.267,3.732,3.732,0,0,1-2.206.068.4.4,0,0,1-.328-.289" transform="translate(158.557 24.833)" fill="#fcfcfc"/>
      <path id="Path_47" data-name="Path 47" d="M108.842,11.869a1.354,1.354,0,0,1-1.775.659,1.353,1.353,0,0,1-.235-1.879,1.354,1.354,0,0,1,1.772-.659,1.357,1.357,0,0,1,.239,1.879" transform="translate(273.307 25.266)" fill="#fcfcfc"/>
      <path id="Path_48" data-name="Path 48" d="M23.679,9.918a1.065,1.065,0,0,1,1.176.927,1.127,1.127,0,0,1-2.235.128,1.061,1.061,0,0,1,1.059-1.055" transform="translate(58.007 25.428)" fill="#fcfcfc"/>
      <path id="Path_49" data-name="Path 49" d="M105.3,11c-.192.321-.531.474-.752.342a.607.607,0,0,1-.057-.827c.193-.321.531-.474.752-.339s.25.5.057.823" transform="translate(267.653 25.966)" fill="#fcfcfc"/>
      <path id="Path_50" data-name="Path 50" d="M120.178,10.282a.449.449,0,0,1,.545-.107q.636.326.107,1.1a.424.424,0,0,1-.592.111.158.158,0,0,1-.053-.043.677.677,0,0,1-.007-1.062" transform="translate(307.559 25.966)" fill="#fcfcfc"/>
      <path id="Path_51" data-name="Path 51" d="M121.668,10.152a.271.271,0,1,1-.271.271.271.271,0,0,1,.271-.271" transform="translate(311.334 26.035)" fill="#fcfcfc"/>
      <path id="Path_52" data-name="Path 52" d="M128.473,13.043c-.642,1.012-1.75,1.461-2.477,1a1.948,1.948,0,0,1-.16-2.67,1.942,1.942,0,0,1,2.477-1,1.937,1.937,0,0,1,.16,2.666" transform="translate(321.599 26.146)" fill="#fcfcfc"/>
      <path id="Path_53" data-name="Path 53" d="M89.312,10.312a1.675,1.675,0,0,1,.635.446c.16.192.118.3-.132.31a.934.934,0,0,1-.471-.114c-.26-.139-.349-.321-.264-.549a.151.151,0,0,1,.232-.093" transform="translate(228.375 26.388)" fill="#fcfcfc"/>
      <path id="Path_54" data-name="Path 54" d="M58.921,14.644a1.135,1.135,0,0,1-.089-1.608v0l1.49-1.654a2.377,2.377,0,0,1,3.351-.214h0l.1.089a2.372,2.372,0,0,1,.153,3.354l0,0-1.483,1.654a1.139,1.139,0,0,1-1.608.093l0,0Z" transform="translate(150.132 27.115)" fill="#fcfcfc"/>
      <path id="Path_55" data-name="Path 55" d="M48.407,13.849c-.381-.232-.5-.5-.364-.816a6.231,6.231,0,0,1,1.747-2.21.657.657,0,0,1,.649-.111A2.556,2.556,0,0,1,52.06,12.9a.6.6,0,0,1-.2.574l-1.608,1.49a.965.965,0,0,1-1.358-.05.927.927,0,0,1-.239-.492l-.046-.271a.439.439,0,0,0-.207-.307" transform="translate(123.068 27.367)" fill="#fcfcfc"/>
      <path id="Path_56" data-name="Path 56" d="M118.123,10.695a.321.321,0,0,1,0,.642.321.321,0,1,1,0-.642" transform="translate(302.106 27.428)" fill="#fcfcfc"/>
      <path id="Path_57" data-name="Path 57" d="M42.677,10.845a.6.6,0,1,1-.606.6.6.6,0,0,1,.606-.6" transform="translate(107.895 27.812)" fill="#fcfcfc"/>
      <path id="Path_58" data-name="Path 58" d="M37.222,11.058a.253.253,0,0,1,.356,0,.239.239,0,0,1,.064.118.686.686,0,0,1-.032.5.337.337,0,0,1-.456.15A.344.344,0,0,1,37,11.667c-.082-.178-.011-.381.221-.61" transform="translate(94.807 28.174)" fill="#fcfcfc"/>
      <path id="Path_59" data-name="Path 59" d="M90.986,11.145a.642.642,0,1,1-.642.642.644.644,0,0,1,.642-.642" transform="translate(231.695 28.582)" fill="#fcfcfc"/>
      <path id="Path_60" data-name="Path 60" d="M68.093,11.6a.36.36,0,0,1,.378-.264c.485.046.652.292.5.734-.1.3-.267.431-.5.41a.4.4,0,0,1-.4-.389,1.405,1.405,0,0,1,.018-.492" transform="translate(174.553 29.065)" fill="#fcfcfc"/>
      <path id="Path_61" data-name="Path 61" d="M62.168,11.534c.217-.189.474-.053.766.4.171.26.1.413-.207.463l-.528.089c-.282.043-.406-.078-.378-.356a.925.925,0,0,1,.346-.6" transform="translate(158.538 29.369)" fill="#fcfcfc"/>
      <path id="Path_62" data-name="Path 62" d="M21.827,12.136a.7.7,0,0,1,.592-.018.425.425,0,0,1,.225.56.438.438,0,0,1-.135.175.907.907,0,0,1-.795.071.283.283,0,0,1-.207-.367.536.536,0,0,1,.321-.421" transform="translate(55.136 30.931)" fill="#fcfcfc"/>
      <path id="Path_63" data-name="Path 63" d="M108.01,13.348a1.363,1.363,0,0,1-.535,1.722,1.977,1.977,0,0,1-2.1-.175q-.668-.39-.738-.642a1.554,1.554,0,0,1,.317-.93,1.99,1.99,0,0,1,1.736-1.2c.659,0,1.1.413,1.319,1.226" transform="translate(268.326 31.087)" fill="#fcfcfc"/>
      <path id="Path_64" data-name="Path 64" d="M63.8,12.255a.434.434,0,0,1,.5.253.848.848,0,0,1,.075.232c.018.217-.082.328-.3.328a.826.826,0,0,1-.635-.214.277.277,0,0,1,.032-.453.708.708,0,0,1,.321-.146" transform="translate(162.465 31.396)" fill="#fcfcfc"/>
      <path id="Path_65" data-name="Path 65" d="M90.429,12.6a.4.4,0,0,1,.585-.025.277.277,0,0,1,.046.389.281.281,0,0,1-.11.082.467.467,0,0,1-.5-.011.289.289,0,0,1-.043-.406l.025-.029" transform="translate(231.685 31.967)" fill="#fcfcfc"/>
      <path id="Path_66" data-name="Path 66" d="M212.1,116.528l-3.992,9.143a.929.929,0,0,1-.278.353.765.765,0,0,0-.153,1.226.333.333,0,0,1-.043.5c-.417.371-.556.41-.709.987a22.409,22.409,0,0,1-2.043,5.24q-.289.524-1.351,3.408a11.47,11.47,0,0,1-.873,2.887,19.621,19.621,0,0,0-1.479,3.094.449.449,0,0,1-.225.25.392.392,0,0,1-.2.032.171.171,0,0,1-.16-.214l.378-3.3a.236.236,0,0,0-.214-.274.242.242,0,0,0-.143.021,1.35,1.35,0,0,0-.681,1.893l0,.021-.128.118c-.089.078-.15.064-.189-.043a2.309,2.309,0,0,1-.075-1.925,59.809,59.809,0,0,0,3.336-10.573l0-.025-.086-.139c-.011-.014-.032.007-.053.071l-2.025,4.7a.119.119,0,0,1-.086.078l-.421.107c-.274.064-.364-.032-.267-.3l1.775-4.912a.026.026,0,0,0-.014-.039l-.135-.1a.045.045,0,0,0-.064.007l0,.011a27.323,27.323,0,0,1-3.262,6.263.1.1,0,0,1-.139.039l-.157-.082a.076.076,0,0,1-.043-.107,56.017,56.017,0,0,0,2.912-8.477,5.891,5.891,0,0,1,1.162-2.285,8.157,8.157,0,0,0,1.362-2.06q.1-.273,1.64-4.2v-.011l-.089-.139q-.086-.128-.15.011a26.907,26.907,0,0,0-1.511,3.679,6.862,6.862,0,0,1-1.426,2.392,10.235,10.235,0,0,0-2.1,4.577,1.134,1.134,0,0,1-.282.528,3.377,3.377,0,0,0-.713,1.166c-.025.078-.068.089-.121.025l-.253-.3a.2.2,0,0,1-.018-.264l.688-.945c.061-.086.043-.153-.057-.2l-.228-.114a.11.11,0,0,0-.157.039,11.863,11.863,0,0,1-1.914,1.925c-.029.021-.046,0-.071-.057l-.014-.039a.059.059,0,0,1,.007-.061c.41-.324.6-.6.56-.813q-.2-1.182-.888-.2a9.47,9.47,0,0,1-1.087,1.347c-.5.5-.627.413-.4-.253l4.844-14.3c.082-.25.025-.3-.185-.132a1.425,1.425,0,0,1-1.041.317,1.259,1.259,0,0,0-.613.1,28.093,28.093,0,0,1-18.736,1.6,1.4,1.4,0,0,1-.553-.292,3.627,3.627,0,0,0-1.59-.823,16.214,16.214,0,0,1-1.661-.428c-16.447-7.069-19.4-24.475-13.588-39.838a70.208,70.208,0,0,1,5.611-11.524.29.29,0,0,0,.036-.264c-.075-.178-.178-.2-.321-.061a31.929,31.929,0,0,1-3.372,3.094,84.771,84.771,0,0,1-20.468,11.1,126.06,126.06,0,0,1-18.126,4.973,3.642,3.642,0,0,1-.542.046.3.3,0,0,0-.3.307.312.312,0,0,0,.082.2l40.9,44.133c.374.4.3.513-.214.342a2.2,2.2,0,0,1-.809-.424,75.72,75.72,0,0,0-6.324-5.525c-.766-.592-.642-1.066-1.13-1.576-.075-.078-.1-.064-.089.046l.125.716a.192.192,0,0,1-.164.214.187.187,0,0,1-.143-.039A88.6,88.6,0,0,1,144.6,110.268c-1.1-1.333-2.338-2.035-3.443-3.208-.068-.075-.121-.1-.157-.086-.064.029-.086.032-.05.007.688.823,1.625,1.433,2.26,2.185q6.192,7.395,8.024,9.567.342.406.916,1.251a.868.868,0,0,1,.15.6,2.279,2.279,0,0,0,.631,1.593,36.378,36.378,0,0,0,5.09,5.2,9.507,9.507,0,0,1,1.109,1.64c.146.25.082.356-.207.321l-.417-.05c-.253-.029-.378.086-.378.346.011.242.192.413.545.5a.536.536,0,0,1,.406.378,7.42,7.42,0,0,0,1.7,2.688q1.166,1.251,3.547,4.452a.135.135,0,0,1,.014.157,1.5,1.5,0,0,1-.075.139.139.139,0,0,0-.039.125,8.32,8.32,0,0,0,3.365,4.47.182.182,0,0,1,.086.235l-.086.217c-.014.057-.053.071-.107.046a11.684,11.684,0,0,1-2.894-2q-3.593-3.566-5.554-5.461c-1.287-1.244-2.05-2.816-3.565-3.893a.16.16,0,0,0-.225.032l-.029.043-.082.239a.509.509,0,0,0,.2.592,8.475,8.475,0,0,1,2.264,2.121q.839,1.15-.389.428a20.8,20.8,0,0,1-2.994-2.26.706.706,0,0,1-.26-.538,3.354,3.354,0,0,1,.193-1.2.5.5,0,0,0-.121-.542,3.156,3.156,0,0,0-1.8-1.037.448.448,0,0,1-.406-.378c-.178-.763-.845-.93-1.223-1.383-1.764-2.1-3.119-4.021-4.712-5.792q-3.823-4.24-5.953-6.655c-1.814-2.057-4.9-5.03-6.937-7.735a26.187,26.187,0,0,0-1.95-1.861c-.086-.089-.132-.082-.146.018l-.007.007c-.011.075-.011.121.007.132a22.071,22.071,0,0,1,2.524,2.8c3,3.914,6.238,7.625,9.222,11.56.941,1.244,2.5,2.46,3.169,3.515a19.752,19.752,0,0,0,3.639,4.238c.962.863,1.768.4,2.3,1.989a7.29,7.29,0,0,0,.506,1.119c.061.107.032.175-.089.2l-.346.053a.1.1,0,0,1-.121-.068,5.235,5.235,0,0,0-1.583-2.36c-1.308-1.03-1.985-1.561-2.014-1.6q-2.572-2.588-4.659-4.809a3.907,3.907,0,0,0-1.782-.895,5.493,5.493,0,0,1-2.185-1.747q-2.149-2.438-6.167-7.568a.1.1,0,0,0-.111-.036l-.175.043a.125.125,0,0,0-.089.15l.018.039,8.416,12.647c.061.093.036.118-.064.075-2.428-.98-4.317-4.288-6.153-6.245q-4.283-4.55-9.186-10.352c-5.454-6.441-10.07-11.535-14.993-17.52q-.7-.845-1.158.139-4.1,8.582-8.9,19.691c-.863,1.993-1.943,4.156-3.009,6.124-.478.873-.492,2.378-1.3,3.037-.2.168-.324.121-.364-.143-.16-1.119-.62-1.633-1.365-1.536a.458.458,0,0,1-.513-.4.571.571,0,0,1,.011-.175l.627-2.317c.021-.075,0-.107-.086-.093l-.185.032-.018.018a3.09,3.09,0,0,1-2.182,2.648.116.116,0,0,1-.146-.075.147.147,0,0,1,0-.078l.086-.232c.043-.114.007-.143-.1-.089-.282.135-.478.57-.592,1.3q-.139.877-.424.029c-.007-.025-.029-.107-.068-.25-.046-.185-.143-.214-.292-.089a1.9,1.9,0,0,0-.6.82,10.934,10.934,0,0,1-1.123,2.313c-.093.132-.064.242.086.328l.168.093a.692.692,0,0,0,.078-.089c.36-.467.545-.706.549-.716.214-.221.331-.2.342.075a.5.5,0,0,1-.157.453,3.089,3.089,0,0,0-1.037,1.191.3.3,0,0,1-.424.175c-.146-.053-.225-.118-.246-.189q-.214-.941-.731-.157a2.231,2.231,0,0,0-.421,1.176q.021,1.331-.745.232a6.824,6.824,0,0,1-.321-.667.334.334,0,0,0-.442-.164.3.3,0,0,0-.086.057l-.891.831c-.175.157-.271.121-.292-.107a3.166,3.166,0,0,1,.948-2.78.911.911,0,0,0,.278-.52,7.9,7.9,0,0,1,.435-1.993c1.633-3.775,2.7-5.892,3.283-9.329.05-.31-.025-.342-.225-.093l-2.613,3.3c-.488.62-.756.542-.784-.239a1.956,1.956,0,0,1,.324-.52.192.192,0,0,0,.036-.078c.018-.071,0-.075-.046-.018a3.543,3.543,0,0,1-1.144.995c-.72.364-.995.93-1.547,1.515a.432.432,0,0,1-.232.132.5.5,0,0,1-.292-.036.244.244,0,0,1-.1-.321q5.288-11.111,10.712-22.207,1.107-2.283,2.738-6.548a62.6,62.6,0,0,1,4.72-9.054.563.563,0,0,0,.025-.542.632.632,0,0,0-.659-.335.365.365,0,0,1-.417-.356c-.028-.189.157-.378.545-.567.207-.1.21-.2.011-.307a3.038,3.038,0,0,1-1.29-1.315.538.538,0,0,1,.225-.731.588.588,0,0,1,.314-.057l2.37.278a.62.62,0,0,0,.688-.378L118.111,41.7a.364.364,0,0,0-.168-.478.356.356,0,0,0-.21-.032L107.1,43a1.12,1.12,0,0,1-.987-.342l-1.419-1.533c-.182-.2-.16-.371.071-.51q.749-.433.431-1.087a.549.549,0,0,0-.524-.328,1.016,1.016,0,0,1-1.151-1.069.548.548,0,0,0-.371-.488l-1.458-.524a.714.714,0,0,1-.428-.905.742.742,0,0,1,.093-.175l.909-1.258a.48.48,0,0,0-.1-.674l-.05-.032-1.643-.905q-2.321-1.294.3-1.754a161.71,161.71,0,0,1,23.466-2.278.491.491,0,0,0,.431-.289q2.08-4.8,4.787-10.23a20.8,20.8,0,0,1,1.811-2.944c.888-1.233,1.95-3.058,2.267-3.126a.7.7,0,0,1,.834.51.8.8,0,0,1-.007.332l-.716,2.442a.788.788,0,0,0,.029.5c.039.107.075.168.118.185a1.378,1.378,0,0,0,1.5-.681l.813-1.162a.046.046,0,0,1,.039-.025c.41-.21.627-.139.656.214a.292.292,0,0,1-.057.192,7.056,7.056,0,0,1-2.4,1.925.6.6,0,0,0-.317.684c.082.378.314.474.692.285,1.74-.873,2.121-1.964,4.238-1.654a.36.36,0,0,1,.349.413l-.068,2.905c-.007.25.111.353.36.31l1.526-.26a.785.785,0,0,1,.9.652.759.759,0,0,1-.029.389L138.646,30a.255.255,0,0,0,.157.324l.061.014a78.507,78.507,0,0,1,17.114,3.746c6.053,2.039,12.975,5.525,15.713,11.114a17.284,17.284,0,0,1,1.344,10.056c-.039.274.039.31.221.107q9.828-10.961,13.189-13.873a157.586,157.586,0,0,1,14.708-11.232,30.379,30.379,0,0,1,6.7-3.347,6.166,6.166,0,0,0,.938-.428C216,22.43,229,18.59,236.833,24.023q1.053.733,2.677,1.679,1.037.61,1.009,2.591a.439.439,0,0,0,.339.463c2.47.813,3.051,3.85,3.4,6.384a.855.855,0,0,1-1.276.855c-3.358-1.957-6.021-3.426-10.145-2.9a35.849,35.849,0,0,0-12.861,4.459q-2.738,1.519-10.423,7c-13.877,9.888-25.469,22.842-32.52,38.334-2.374,5.211-4.62,12.551-3.119,18.3,1.633,6.27,10.451,4.074,14.608,2.264A65.632,65.632,0,0,0,206.6,91.743a.114.114,0,0,0,.018-.16.116.116,0,0,0-.078-.043,3.049,3.049,0,0,0-.948.075q-2.887.706-10.412,2.9a.653.653,0,0,1-.809-.446.66.66,0,0,1-.028-.164l-.032-1.807a.613.613,0,0,1,.307-.577.579.579,0,0,0,.31-.417.389.389,0,0,0-.282-.463,4.478,4.478,0,0,0-3.226.25.3.3,0,0,1-.4-.16.383.383,0,0,1-.014-.21,1.72,1.72,0,0,0-1.1-2.381.6.6,0,0,1-.4-.442.885.885,0,0,1-.021-.264.4.4,0,0,1,.374-.356,9.725,9.725,0,0,0,1.586-.36c.317-.1.488-.271.5-.5a.448.448,0,0,0-.307-.471,2.711,2.711,0,0,1-.848-.424c-.214-.25-.235-.438-.082-.563l.353-.278a.292.292,0,0,0,.043-.417.39.39,0,0,0-.057-.053,1.3,1.3,0,0,0-.966-.039.4.4,0,0,1-.328-.064l-2.1-1.522a.69.69,0,0,1-.153-.966.7.7,0,0,1,.317-.239,35.168,35.168,0,0,1,4.409-1.372q13.57-3,24.835-5.718c5.86-1.415,11.877-2.538,16.632-3.721a.523.523,0,0,1,.738.478l.285,1.693a.478.478,0,0,0,.339.406l1.155.417a.5.5,0,0,1,.331.485c-.028.538.271.756.9.645.656-.118,1.044-.178,1.155-.182.328-.007.435.139.328.446l-.071.2a.627.627,0,0,1-.663.41,2.62,2.62,0,0,0-1.5.2c-.349.171-.332.282.057.328l1.707.2a.944.944,0,0,1,.446.178l1.558,1.126a.336.336,0,0,0,.4,0l.324-.217a.336.336,0,0,1,.232-.053.4.4,0,0,1,.3.2.229.229,0,0,1-.061.3l-.392.328a.6.6,0,0,0-.221.431.875.875,0,0,1-.157.435.513.513,0,0,1-.51.214,7.267,7.267,0,0,0-2.47.471,33.22,33.22,0,0,0-5.842,1.3,25.971,25.971,0,0,1-3.921,1.444c-.032.011-.053.05-.064.128v0c-.011.061.029.082.121.064l8.434-1.586a.113.113,0,0,1,.118.053l.089.132-.011.011c-1.134.371-1.519,1.244-2.823,1.54q-2.534.583-5.4,1.208a2.391,2.391,0,0,0-1.1.524c-.5.442-.424.585.221.421a35.564,35.564,0,0,1,6.22-.92c2.071-.143,3.932-.321,5.593-.542.884-.11,1.846.235,2.862-.314.242-.125.328-.057.257.207a.516.516,0,0,1-.364.328c-1.814.692-3.725.749-5.6,1.4q-1.8.631-9.8,2.513a.5.5,0,0,0-.367.328l-14.39,40.2a1.834,1.834,0,0,1-.364.581l-1.116,1.194a.239.239,0,0,1-.413-.014,1.345,1.345,0,0,1-.207-.381.8.8,0,0,1-.007-.567,38.574,38.574,0,0,0,1.469-3.672,1.1,1.1,0,0,0-.381-1.308c-.082-.057-.2-.007-.339.143-.317.342-.435,1.315-.749,1.832-.353.57-.414.549-.193-.057a2.588,2.588,0,0,1,.456-.791.5.5,0,0,0,.1-.535,2.675,2.675,0,0,1,.125-2.26,8.543,8.543,0,0,0,.813-1.9c.549-2.149.859-3.361.92-3.643.114-.51.068-.528-.143-.043M190.486,59.373l-1.822.759a.4.4,0,0,0-.274.474,1.246,1.246,0,0,1-.114.774.62.62,0,0,1-.463.324,1.032,1.032,0,0,0-.806.638,1.6,1.6,0,0,1-.36.5,17.318,17.318,0,0,0-2.57,3.126,15.824,15.824,0,0,1-1.875,2.378,16.158,16.158,0,0,0-1.843,2.435A70.274,70.274,0,0,0,176.695,77q-1.791,3.55-2.588,5.329a27.375,27.375,0,0,0-1.868,5.628q-.38,1.732.214.061a26.3,26.3,0,0,1,1.486-4.024c1.893-3.365,3.443-7.019,5.586-10.063q.85-1.219,2.706-4.117a61.46,61.46,0,0,1,7.853-9.792,1.026,1.026,0,0,0,.192-.317,1.42,1.42,0,0,1,.21-.332q2.679-2.791,5.3-5.686,1.144-1.273,10.18-8.466a35.092,35.092,0,0,1,4.046-2.805c.966-.563,2.367-1.429,4.188-2.588.078-.053.093-.114.036-.185v0a.124.124,0,0,0-.182-.046q-5.866,3.31-7.34,4.417-5.208,3.9-10.54,8.715c-1.9,1.722-3.6,4.039-5.557,6.038a.742.742,0,0,0-.132.61M147.633,42.334a.772.772,0,0,1-.5-.242.912.912,0,0,0-.567-.246,32.582,32.582,0,0,1-4.445-.706,46.51,46.51,0,0,0-8.609-.346.362.362,0,0,0-.4.36l-.028.207a.235.235,0,0,0,.2.257.171.171,0,0,0,.043,0,63.853,63.853,0,0,1,15.834,1.134.84.84,0,0,0,.627-.064c.16-.111.146-.189-.05-.232a9.145,9.145,0,0,0-2.117-.121M162.444,48.9a.25.25,0,0,0-.039-.353l-.007,0a15.9,15.9,0,0,0-4.238-2.271,67.206,67.206,0,0,0-25.3-3.6.8.8,0,0,0-.688.453l-11.9,25.647a.057.057,0,0,0,.028.071l.029,0a126.261,126.261,0,0,0,24.022-8,112.121,112.121,0,0,0,11.952-6.591,24.521,24.521,0,0,0,6.138-5.365M148.028,68.673a34.066,34.066,0,0,0-3.96,2.189.2.2,0,0,0-.1.171.309.309,0,0,0,.046.2.228.228,0,0,0,.3.071q5.983-2.764,12.793-6.491a24.169,24.169,0,0,0,4.242-2.948.194.194,0,0,0,.021-.278.142.142,0,0,0-.057-.043.388.388,0,0,0-.324.018,12.631,12.631,0,0,0-2.969,1.754c-2.1,1.7-4.078,2.107-6.416,3.679a28.269,28.269,0,0,1-3.579,1.679m-12.754,6.391q-6.8,2.064-14.629,3.771c-.11.025-.15.086-.118.185v0c.025.071.075.1.171.075q13.656-2.663,18.04-4.231.454-.16,5.5-1.811a43.559,43.559,0,0,0,5.4-2.1,72.238,72.238,0,0,0,12.8-8c.014-.014.021-.029.011-.046l-.068-.164c-.043-.093-.1-.107-.189-.05q-4.545,3.1-9.1,5.75c-1.39.809-3.3,1.465-4.37,2.067a14.76,14.76,0,0,1-3.3,1.429q-.086.021-8.78,2.973a1.339,1.339,0,0,1-.6.064,1.862,1.862,0,0,0-.77.082m-.966,3.023a22.782,22.782,0,0,0-4.948,1.166,7.863,7.863,0,0,1-.945.168,1.258,1.258,0,0,0-.877.5.4.4,0,0,1-.535.118q-.775-.476-1.2.153a.521.521,0,0,1-.6.2,1.283,1.283,0,0,0-1.351.207.723.723,0,0,1-.553.185,2.587,2.587,0,0,0-1.4.257c-.171.078-.193.189-.064.328l1.469,1.583a.383.383,0,0,0,.385.125.377.377,0,0,0,.3-.207.241.241,0,0,1,.239-.143,11.543,11.543,0,0,0,3.479-.649,114.485,114.485,0,0,0,14.953-3.885,75.982,75.982,0,0,0,14.6-7.094,49.068,49.068,0,0,0,6.766-5.3.083.083,0,0,0,0-.139c-.032-.029-.089-.021-.175.018a18.747,18.747,0,0,0-3.365,2.3c-.87.749-1.928.913-2.887,1.836a.182.182,0,0,1-.292,0l-.2-.21a.119.119,0,0,1,.007-.189l1.362-1.219c.032-.029.05-.053.032-.068l-.089-.146a.111.111,0,0,0-.168-.043,89.159,89.159,0,0,1-22.211,9.539.937.937,0,0,1-.585-.018.524.524,0,0,0-.417.007.778.778,0,0,0-.292.324.536.536,0,0,1-.435.3m8.99-6.965a.978.978,0,0,0-.841.307c-.353.317-.26.456.275.413a1.418,1.418,0,0,0,.656-.374c.228-.182.2-.3-.089-.346m-7.878,2.784c.043.16,2.057-.371,6.024-1.59a.141.141,0,0,0,.107-.114.349.349,0,0,0-.007-.171.321.321,0,0,0-.089-.143.151.151,0,0,0-.15-.039c-3.971,1.216-5.939,1.9-5.885,2.057m-3.144-.891c-.078.064-.064.107.036.118a.394.394,0,0,0,.335-.1c.324-.3.285-.371-.107-.2a.875.875,0,0,0-.264.185m-30.834,4.948a.161.161,0,0,0-.075-.217l-.014-.007a.159.159,0,0,0-.214.078l-4.673,9.742a.173.173,0,0,0,.078.221l.011,0a.168.168,0,0,0,.221-.075Zm86.915,27.615a63.124,63.124,0,0,0,14.13-8.174,2.856,2.856,0,0,0,.784-.877c.111-.217.064-.26-.143-.132-2.178,1.358-4.777,3.347-7.129,4.748a101.977,101.977,0,0,1-9.026,4.823c-.414.2-.4.235.046.107a12.927,12.927,0,0,0,1.337-.5m7.906,4.527q-1.861.823-3.7,1.668c-.086.043-.111.093-.064.15l.007.007c.025.032.071.039.132.018a62.066,62.066,0,0,0,9.628-4.434,1.48,1.48,0,0,0,.741-1.219c.021-.242-.071-.3-.278-.164q-5.3,3.454-6.47,3.975m4.342,1.761a1.269,1.269,0,0,0,.691-.873c.036-.246-.053-.321-.285-.221l-9.129,4a.541.541,0,0,1-.21.043,1.85,1.85,0,0,0-.913.257c-.378.221-.346.3.093.253a25.015,25.015,0,0,0,9.753-3.454m4.2,4.741c.086.05.488-.542.9-1.315a3.651,3.651,0,0,0,.574-1.486c-.086-.046-.492.542-.9,1.315a3.607,3.607,0,0,0-.574,1.486m-6.013-1.28c.5.075.7-.139.627-.642-.043-.242-.15-.282-.332-.114l-.406.378c-.225.207-.185.332.111.378M152.249,128.64a.871.871,0,0,0,.545.52c.335.071.46.053.374-.05L142.083,116a.093.093,0,0,0-.157,0l-.125.107a.117.117,0,0,0,0,.185,92.852,92.852,0,0,1,9.175,11.146,7.213,7.213,0,0,0,.966.823,1.132,1.132,0,0,1,.31.378m-55.9-11.467a.283.283,0,0,0-.143.367l.028.043a.44.44,0,0,0,.406.232.261.261,0,0,0,.26-.217.319.319,0,0,0-.164-.367.439.439,0,0,0-.389-.057m107.216.342a1.255,1.255,0,0,0-.064.4c0,.168.061.189.175.061a.374.374,0,0,0,.05-.488.093.093,0,0,0-.128-.025.1.1,0,0,0-.032.05m-.478,1.18a3.318,3.318,0,0,0-.16.31c-.139.428-.075.467.207.118.125-.171.164-.314.111-.428s-.1-.1-.157,0m-.863,2.5c.068.018.228-.339.367-.795a1.777,1.777,0,0,0,.139-.866c-.068-.021-.232.335-.371.795S202.157,121.176,202.221,121.194Zm-.61,1.012c-.417.88-.31.945.328.189a1.245,1.245,0,0,0,.16-.713c.011-.356-.061-.371-.214-.05Zm2.039,4.605a13.538,13.538,0,0,0,1.034-2.349,14.615,14.615,0,0,0,.816-2.438,13.661,13.661,0,0,0-1.037,2.353,14,14,0,0,0-.816,2.435Zm6.627-3.554a.168.168,0,0,0,.089.264.562.562,0,0,0,.852-.31,1.181,1.181,0,0,0,.114-.709c-.039-.278-.171-.324-.385-.146a3.125,3.125,0,0,0-.67.9m-8.783,3.91,0,.018.125.1c.086.053.146.039.189-.046a10.922,10.922,0,0,0,1.137-3.344.158.158,0,0,0-.025-.132.212.212,0,0,0-.082-.05c-.036-.011-.061.014-.086.068Zm-.5,11.282c-.146.089-.232.16-.239.221-.093.353.007.421.3.207a.282.282,0,0,0,.1-.385.1.1,0,0,0-.157-.043" transform="translate(212.861 32.126)" fill="#000"/>
      <path id="Path_67" data-name="Path 67" d="M11.15,13.058a.5.5,0,1,1-.642-.4.535.535,0,0,1,.642.4" transform="translate(26.086 32.422)" fill="#fcfcfc"/>
      <path id="Path_68" data-name="Path 68" d="M12.271,13.054c.093.053,0,.485-.264,1.29-.157.453-.406.57-.756.349s-.356-.492-.018-.827c.6-.6.945-.87,1.037-.813" transform="translate(28.166 33.459)" fill="#fcfcfc"/>
      <path id="Path_69" data-name="Path 69" d="M64.932,13.243a.647.647,0,1,1-.649.649.649.649,0,0,1,.649-.649" transform="translate(164.86 33.962)" fill="#fcfcfc"/>
      <path id="Path_70" data-name="Path 70" d="M15.66,14.069c-.032.307-.225.538-.431.517s-.353-.289-.321-.6.228-.538.435-.517.349.289.317.6" transform="translate(38.222 34.551)" fill="#fcfcfc"/>
      <path id="Path_71" data-name="Path 71" d="M108.521,13.816a.191.191,0,0,1,.264-.078.206.206,0,0,1,.075.071c.089.157.075.274-.036.36a.194.194,0,0,1-.3-.039.27.27,0,0,1-.007-.314" transform="translate(278.194 35.168)" fill="#fcfcfc"/>
      <path id="Path_72" data-name="Path 72" d="M70.66,17.86a.772.772,0,0,1-.121-1.087L71.8,15.186a1.665,1.665,0,0,1,2.335-.289l.118.093a1.665,1.665,0,0,1,.246,2.342l-1.262,1.583a.778.778,0,0,1-1.084.128Z" transform="translate(180.466 37.302)" fill="#fcfcfc"/>
      <path id="Path_73" data-name="Path 73" d="M118.547,18.934a1.771,1.771,0,0,1-.214.856c-1.194,2.2-2.485,4.36-5.447,3.778a.744.744,0,0,1-.5-.321,7.906,7.906,0,0,0-1.875-1.868.507.507,0,0,1-.168-.57c.007-.025.185-.749.535-2.164a3.842,3.842,0,0,1,1.005-1.918,6.957,6.957,0,0,1,3.34-1.957.98.98,0,0,1,.816.175l2.4,1.736a.266.266,0,0,1,.121.235Z" transform="translate(282.926 37.817)" fill="#fcfcfc"/>
      <path id="Path_74" data-name="Path 74" d="M244.731,30.83a3.458,3.458,0,0,0-.923.795c-1.426,1.747-3.187,3.312-4.78,4.93q-1.925,1.962-3.778,4.224-3.09,3.77-4.049,5.015A99.334,99.334,0,0,0,218.513,67.2a.112.112,0,0,0,.057.157.108.108,0,0,0,.164-.05q2.064-3.754,4.206-7.471A145.543,145.543,0,0,1,244.25,31.661a1.879,1.879,0,0,0,.481-.831,57.494,57.494,0,0,0,5.258-4.288q2.518-2.315,10.113-6.548,6.914-3.855,12.358-2.538a.509.509,0,0,1,.4.389q.46,1.674,2.467,1.216a.419.419,0,0,1,.52.239,2.78,2.78,0,0,1,.253,1.073.675.675,0,0,0,.282.531,26.816,26.816,0,0,1,2.877,2.427q1.727,1.791-.8,1.426c-2.738-.4-6.53,1.465-8.787,2.862-.545.335-.5.549.132.649a18.8,18.8,0,0,1,10.255,5.015q10.475,9.79,8.455,24.542a40.493,40.493,0,0,1-2.153,8.748A82.436,82.436,0,0,1,276.623,85.1a94.743,94.743,0,0,1-12.9,14.9c-5.315,4.937-11.824,9.346-18.942,11.239-11.738,3.119-24.478-4.331-28.007-15.834a.219.219,0,0,0-.378-.082,35.2,35.2,0,0,1-6.138,5.628c-10.419,7.528-20.739,12.911-33.828,18.34q-13.014,5.4-24.175,9.82c-3.472,1.38-8.081,3.3-11.261,6a.076.076,0,0,1-.1-.011l-.007-.014-.107-.26a.492.492,0,0,1,.132-.617,7.8,7.8,0,0,0,1.433-1.729,5.559,5.559,0,0,1,1.433-1.572l2.264-1.686a8.124,8.124,0,0,1,1.686-.834,4.794,4.794,0,0,0,1.636-1.044c.018-.018.014-.021-.007-.014L142.894,130a.534.534,0,0,1-.538-.071l-.246-.175a.338.338,0,0,0-.5.05,2.5,2.5,0,0,1-1.9.806.9.9,0,0,0-.553.2,6.224,6.224,0,0,0-1.333,1.725c-.207.356-.41.356-.606,0a1.989,1.989,0,0,1-.164-.435,2.128,2.128,0,0,1,.025-1.119l.435-1.472c.071-.239-.018-.374-.264-.4l-2.007-.232a.277.277,0,0,1-.242-.307.27.27,0,0,1,.075-.16c.9-.966,2.206-1.18,2.937-2.092a19.36,19.36,0,0,1,1.654-1.693c.157-.15.128-.221-.089-.207l-.667.036a.128.128,0,0,0-.071.039,4.643,4.643,0,0,1-2.174,1.447c-.528.153-.645,0-.353-.467a4.658,4.658,0,0,1,.87-1.048q1.652-1.46-.542-1.308-.07.005-.952.332a23.189,23.189,0,0,1-4.973,1.216,1.163,1.163,0,0,1-1.315-.987.857.857,0,0,1-.011-.132c-.011-.271.246-.6.766-.987a21.386,21.386,0,0,1,2.716-1.811,76.513,76.513,0,0,1,13.036-5.579.933.933,0,0,0,.649-.895,9.56,9.56,0,0,1,.528-3.183c.1-.274.021-.335-.232-.182a1.861,1.861,0,0,0-.848,1.044.112.112,0,0,1-.175.075l-.164-.075a.054.054,0,0,1-.032-.082q1.246-2.673,2.709-5.251a16.87,16.87,0,0,0,1.1-3.586.286.286,0,0,0,0-.189c-.039-.118-.078-.118-.121,0q-.476,1.182-1.351,1.162c-.242-.007-.349-.135-.321-.378.239-2.281,1.629-4.773,2.976-7.489q1.417-2.877,2.47-5.447,1.791-4.4,6.559-15.082a.265.265,0,0,0-.132-.349.308.308,0,0,0-.082-.021l-3.03-.356a.283.283,0,0,1-.157-.492l1.251-1.158a.45.45,0,0,0-.157-.752,3.55,3.55,0,0,1-1.062-.617.355.355,0,0,1-.014-.606l.121-.111a.363.363,0,0,0,.018-.581c-.182-.182-.642-.1-1.38.253a.628.628,0,0,1-.841-.2,3.043,3.043,0,0,0-1.351-.873.541.541,0,0,1-.371-.485.564.564,0,0,1,0-.221.405.405,0,0,1,.389-.321,1.072,1.072,0,0,0,1.219-1.03.846.846,0,0,1,.335-.585l.652-.5c.189-.143.189-.285-.007-.428l-3.582-2.6a.486.486,0,0,0-.677.114l-.039.068-7.464,15.388c-.046.1-.11.118-.189.057H143.1c-.053-.043-.061-.114-.018-.221l2.666-6.274c.05-.121.011-.171-.114-.146l-.178.039a.065.065,0,0,0-.053.036q-2.2,4.2-2.887,5.436-.053.08-1.586,2.485a10.369,10.369,0,0,0-1.258,2.855.905.905,0,0,1-.364.513c-1.044.724-1.027,2.025-1.818,3.069a25.6,25.6,0,0,0-2.321,4.131q-1.438,3.032-2.124,4.21-3.433,5.9-7.282,13.125-.818,1.54-1.543,3.294a21.108,21.108,0,0,1-1.6,3.276c-.945,1.447-1.141,3.051-2.317,4.392a.2.2,0,0,0-.011.246l.093.143c.014.018.029.018.046,0a5.526,5.526,0,0,0,1.54-2.206,8.2,8.2,0,0,1,1.126-2.214,20.883,20.883,0,0,0,2.413-4.231,3.139,3.139,0,0,0,.282-1.148,1.218,1.218,0,0,1,.656-1.18q1.556-.679.684.859c-4.652,8.259-8.281,16.486-12.565,24.521q-7.641,14.346-11.029,22.118-.107.246-.246.021a1.848,1.848,0,0,1-.278-.731,4.076,4.076,0,0,1-.05-.517c.3-.913.61-1.725.92-2.431q.781-1.8-.385-.221a7.183,7.183,0,0,0-.756,1.358.912.912,0,0,1-.446.478,5.281,5.281,0,0,0-2.552,3.6.112.112,0,0,1-.128.082.132.132,0,0,1-.05-.025c-.071-.061-.075-.111-.018-.153a65.486,65.486,0,0,1,2.837-7.443,11.679,11.679,0,0,0,.667-1.971c.1-.414.029-.446-.214-.093-.567.816-.624,1.961-1.119,2.812-1.914,3.262-2.666,6.231-4.26,9.225a4.2,4.2,0,0,0-1.219.966.863.863,0,0,1-.517.285,2.7,2.7,0,0,0-1.508.724.126.126,0,0,1-.207-.128l.061-.2a.22.22,0,0,1,.189-.164,2.427,2.427,0,0,0,1.971-1.49q1.855-4,2.264-4.691a12.722,12.722,0,0,0,1.5-4.1,29.1,29.1,0,0,1,1.315-4.238c.239-.649.905-.863,1.052-1.376a.912.912,0,0,0,.025-.367c-.021-.175-.1-.2-.228-.078l-1.037.959a.661.661,0,0,0-.214.642,1.554,1.554,0,0,1-1.073,1.889c-.349.135-.438.039-.271-.3l2.224-4.509a.6.6,0,0,0,.021-.517,2.675,2.675,0,0,0-.189-.339.424.424,0,0,1,.043-.528,13,13,0,0,0,1.811-2.934,91.306,91.306,0,0,0,5.012-9.054.147.147,0,0,1,.125-.082c.053,0,.075-.025.071-.057h0a2.345,2.345,0,0,0-.492.585q-3.78,6.357-6.545,11.246c-.367.642-.228,1.615-.756,2.477a35.612,35.612,0,0,0-2.845,5.628c-.406,1.012-1.3,1.636-1.572,2.805-.456.46-.535.749-.239.866a1.2,1.2,0,0,0,.239-.866c.3.014.488.089.567.217a.537.537,0,0,1-.185.738l-.046.025a.776.776,0,0,1-.36.057.515.515,0,0,0-.471.25,11.292,11.292,0,0,0-1.4,2.837,7.784,7.784,0,0,1-1.023,2.231,13.686,13.686,0,0,0-1.265,2.16,9.067,9.067,0,0,1-.724,1.558,12.788,12.788,0,0,0-.816,1.458,29.746,29.746,0,0,1-2.919,5.5q-1.128,1.631-.7-.3a15.446,15.446,0,0,1,.734-2.139,39.5,39.5,0,0,0,1.529-4.441q.406-1.54-.56-.274a9.708,9.708,0,0,1-1.679,1.715c-.235.182-.324.128-.271-.157.5-2.666,2.214-4.52,3.265-6.88a20.972,20.972,0,0,1,1.4-2.734,33.539,33.539,0,0,0,2.132-3.518q3.352-7.176,7.083-14.155a21.3,21.3,0,0,0,1.062-2.691q.471-1.267-.2-.089a174.063,174.063,0,0,0-8.4,16.8,13.129,13.129,0,0,1-2.125,3.23q-1.85,2.165-.631-.406,1.23-2.588,4.245-8.648.2-.4,7.4-15.2l1.818-3.582a37.511,37.511,0,0,0,2.338-5.718c.011-.021.025-.029.046-.018l.011.011.007.014q-6.571,13.025-12.893,24.35a5.013,5.013,0,0,1-1.533,1.886c-.438.253-.549.153-.335-.3q8.052-17.137,16.868-32.912a.133.133,0,0,0-.018-.182l-.128-.139c-.093-.1-.175-.093-.246.025A277.114,277.114,0,0,0,92.608,143.5a32.718,32.718,0,0,1-2.057,3.508.1.1,0,0,1-.143.039l-.164-.082a.235.235,0,0,1-.128-.353c1.925-3.939,3.843-7.642,5.661-11.567q5.448-11.752,12.063-23,.283-.487.813-1.422.182-.332,15.57-28.082a.368.368,0,0,0-.068-.485A124.172,124.172,0,0,1,94.23,34.6a8.536,8.536,0,0,1-.659-3.023q.1-1.353-1.233-1.109a36.7,36.7,0,0,0-9.211,2.93,95.514,95.514,0,0,0-15.264,9.272C51.145,54.923,38.2,70.892,30.649,90.18c-1.772,4.52-3.632,11.407-2.42,16.447a1.519,1.519,0,0,0,1.326,1.155,10.633,10.633,0,0,0,2.656-.043,79.72,79.72,0,0,0,22.446-6.573q1.556-.722,10.355-5.158a5.907,5.907,0,0,1,1.757-.9,1.93,1.93,0,0,0,.553-.2L71.6,92.708a.136.136,0,0,1,.185.057l.014.043.032.164a.072.072,0,0,1-.039.075L65.71,96.557c-.121.071-.118.139.007.2l.164.078a.045.045,0,0,0,.043,0q3.144-1.759,6.267-3.561,3.224-1.866,13.16-8.074.043-.032,1.643-.92a6.728,6.728,0,0,0,2.67-2.755.38.38,0,0,1,.378-.192l.424.05c.1.011.125.061.078.15a6.813,6.813,0,0,1-2.67,2.288.227.227,0,0,0-.082.314.231.231,0,0,0,.061.071l.214.15a.268.268,0,0,0,.335.007l2.413-1.6c.071-.046.125-.032.157.043l.082.178,0,.032-2.745,2.8a1.409,1.409,0,0,1-.488.335,1.442,1.442,0,0,0-.6.413c-.16.214-.114.367.139.453a2.783,2.783,0,0,0,1.754.1,23.373,23.373,0,0,0,2.944-1.24q6.427-3.647,15.413-9.432c.164-.11.235-.068.214.132l-.036.3a.153.153,0,0,1-.064.107q-5.748,3.887-11.553,7.536c-.945.592-1.565.966-1.868,1.119a21.019,21.019,0,0,1-2.039.656c-1.276.371-2.182,1.394-3.062,1.936q-1.936,1.187-2.837,1.818a1.217,1.217,0,0,1-.413.175,1.341,1.341,0,0,0-.321.1q-4.294,2.8-7.3,4.527c-2.83,1.629-5.689,3.85-8.822,5.589v.014l.018-.007.032-.036a.132.132,0,0,1,.071-.064,7.882,7.882,0,0,0,1.985-.759,31.085,31.085,0,0,1,4.78-3,49.312,49.312,0,0,0,5.062-3.03c1.251-.813,2.624-.877,3.85-1.6a.274.274,0,0,1,.282-.025c.16.093.16.189,0,.285A21.955,21.955,0,0,1,81.369,94.2a5.633,5.633,0,0,0-1.925,1.454l-.577.075q-.043.005,0,.011a.758.758,0,0,0,.577-.086l2.6-1.012c.257-.1.317-.032.182.207a1.541,1.541,0,0,1-.67.645,69.413,69.413,0,0,0-7.446,3.982,67,67,0,0,1-6.252,3.964c-1.426.756-2.149,1.137-2.171,1.151q-3.759,2.438.178.282,2.914-1.609,7.7-4.338.032-.016,5.326-2.73a25.436,25.436,0,0,0,5.882-3.989c.813-.766,1.729-.973,2.485-1.886.11-.139.221-.139.339-.007a.409.409,0,0,1,.1.171.206.206,0,0,1-.107.253,12.208,12.208,0,0,0-3.14,2.381,14.258,14.258,0,0,1-2.7,2.335q-2.5,1.5-4.527,2.57-6.849,3.6-10.3,5.447a26.733,26.733,0,0,1-3.369,1.807.494.494,0,0,1-.428-.007.676.676,0,0,1-.139-.089c-.014-.011-.046-.007-.1.018l-3.885,1.946c-.221.111-.21.192.039.239a.642.642,0,0,0,.553-.128,10.894,10.894,0,0,1,4.359-1.747,12.846,12.846,0,0,0,2.859-1.515q11.528-5.732,15.4-8.027A24.142,24.142,0,0,0,86.2,94.048a10.965,10.965,0,0,1,3.864-1.85.147.147,0,0,1,.185.086.164.164,0,0,1,0,.093l-.114.381a.546.546,0,0,1-.3.342A20.815,20.815,0,0,0,82.5,98.35,6.618,6.618,0,0,1,80.6,99.5a.092.092,0,0,0-.068.086v.039q.011.053.064.032c1.975-1.084,3.942-2.962,6.2-4.024q2.524-1.192,3.326-1.643c3.618-2.05,6.712-3.561,9.542-5.907a14.276,14.276,0,0,1,3.2-1.943c.089-.043.139-.014.15.082l.021.164-.039.032a2.459,2.459,0,0,0-1.258,2.281q.027.412.364.182l3.529-2.346c.264-.175.356-.111.278.2a1.759,1.759,0,0,1-.706.987q-4.871,3.5-6.659,4.616c-.05.029-.41.264-1.084.7q-3.283,2.133-7.778,4.8a.129.129,0,0,0-.068.157l.05.171.011.007,4.345-2.41q.422-.235.246.214a2.175,2.175,0,0,1-.577.987q-3.577,2.24-7.1,4.7c-.574.4-1.668.6-2.378.991q-3.492,1.9-11.949,6.837a43.814,43.814,0,0,1-5.981,2.82.112.112,0,0,0-.068.168l.075.178h.011l2.435-.82a1.061,1.061,0,0,0,.535-.4,1.485,1.485,0,0,1,1.276-.528,1.1,1.1,0,0,0,.542-.139,42.31,42.31,0,0,1,7.91-3.743.461.461,0,0,1,.492.121,1.837,1.837,0,0,1,.15.171c.082.1.168.011.267-.285a1.067,1.067,0,0,1,.125-.257.563.563,0,0,1,.221-.189,32.665,32.665,0,0,0,5.254-3.547c.185-.157.267-.114.242.125l-.046.36a.116.116,0,0,1-.043.075l-5.34,4.089a.2.2,0,0,0-.039.289l.014.018.164.178a.4.4,0,0,0,.553.078l9.214-5.318a.256.256,0,0,1,.381.093l.107.164a.3.3,0,0,1-.078.421h0c-3.073,2.107-5.012,3.839-8.345,5.9A124.608,124.608,0,0,1,59.654,120.6a84.885,84.885,0,0,1-13.267,3.721c-17.1,3.3-35.011-6.452-36.615-25-.831-9.628,2.039-18.5,6.641-26.791a113.88,113.88,0,0,1,15.93-22.147,170.647,170.647,0,0,1,13.4-13.314q3.5-2.994,3.59-3.083A11.069,11.069,0,0,1,51.3,32.334c.952-.52,1.775-1.586,2.748-1.95,1.34-.5,3.422-1.985,7.446-4.434a85.689,85.689,0,0,1,17.057-8.288c8.149-2.7,17.381-4.787,24.207,1.761a9.013,9.013,0,0,1,1.269,2.734,1.475,1.475,0,0,0,.328.542,7.349,7.349,0,0,1,1.629,2.542.542.542,0,0,1-.153.624l-.453.421a.585.585,0,0,0-.2.5,9.461,9.461,0,0,0,.453,2.673,12,12,0,0,1,1.052,2.962.367.367,0,0,1-.246.471c-.478.2-1.162-.021-2.05-.674q-.337-.235-.492.139a1.441,1.441,0,0,0,.157,1.269A228.754,228.754,0,0,0,121.62,61.35a111.936,111.936,0,0,0,7.817,9.493.27.27,0,0,0,.381.018.233.233,0,0,0,.057-.075c9.378-17.149,18.383-33.472,26.834-50.029a36.094,36.094,0,0,1,3.707-5.579.851.851,0,0,1,1.03-.282c.485.2.652.652.5,1.337-.15.713-.242,1.151-.274,1.308-.078.342-.007.513.21.517l.863.018a.332.332,0,0,1,.324.332.23.23,0,0,1-.011.071l-.175.688a.291.291,0,0,0,.007.135c.1.292.335.356.692.2a1.713,1.713,0,0,0,.863-1.019.366.366,0,0,1,.506-.25l1.675.488a.672.672,0,0,1,.4.328c.57,1.077,2.306,3.176,2.363,4.666.021.506.282.72.788.642q5.892-.909,9.632-1.319a73.28,73.28,0,0,1,22.2.937c6.669,1.3,13.706,3.978,17.114,10.173a13.33,13.33,0,0,1,.207,13.282,17.83,17.83,0,0,1-4.823,5.094,59.99,59.99,0,0,1-10.754,6.762,7.885,7.885,0,0,1-1.679.5q-2.363.642.089,1.1A28.462,28.462,0,0,1,217.2,69.167c.132.15.25.139.353-.025a3.1,3.1,0,0,1,.517-.642c.274-.217.353-.374.225-.478-.061-.053-.121-.111-.182-.168a.546.546,0,0,1-.114-.606A85.055,85.055,0,0,1,230.75,45.188,120.682,120.682,0,0,1,244.4,30.723a.131.131,0,0,1,.189,0Zm-55.337,7.8a2.248,2.248,0,0,0,.385,2.082.416.416,0,0,1,.043.467l-5.137,10.394a.094.094,0,0,0,.05.125.1.1,0,0,0,.071,0c6.791-2.873,13.766-5.368,20.179-9.011a21.887,21.887,0,0,0,5.536-4.42.443.443,0,0,0-.032-.62l-.039-.029c-3.925-2.788-10.188-4.2-14.754-4.548l-5.554-.356a1.269,1.269,0,0,0-.6.093.707.707,0,0,1-.453.082,5.691,5.691,0,0,0-3.037,0,4.506,4.506,0,0,1-2.139.225q-.15-.032-2.264-.225c-.3-.032-.406.1-.335.381l.182.724a.546.546,0,0,0,.474.421q1.037.123,1.576,1.6a.312.312,0,0,0,.453.207,1.268,1.268,0,0,0,.6-.67c.239-.46.535-.5.888-.128a4.193,4.193,0,0,0,1.294.845.39.39,0,0,1,.26.446l-.164,1.4a.928.928,0,0,0,1.351.937,2.768,2.768,0,0,0,.873-.61q.583-.754.289.189m-20.625-3.265c-1.811.442-2.934-.043-3.971,1.971Q159.462,47.7,152.789,60.156a13.5,13.5,0,0,1-.895,1.479c-.307.417-.207.567.3.438l14.219-3.533a2.522,2.522,0,0,0,1.754-1.447l10.961-23.626a.087.087,0,0,0-.05-.114.058.058,0,0,0-.043-.007q-5.678.9-10.262,2.018m-94.084.271a.147.147,0,0,0-.007.2.1.1,0,0,0,.157.018.161.161,0,0,0,.064-.118q.059-.358-.214-.1M33.454,73.823a.879.879,0,0,1-.15.371.589.589,0,0,1-.31.228,1.371,1.371,0,0,0-.93,1.251.836.836,0,0,1-.157.428l-.627.859a.835.835,0,0,0-.146.4c-.082.88-.652,1.212-.962,1.861a54.4,54.4,0,0,0-2.973,6.7q-1.075,3.5-2.206,8.01a.331.331,0,0,0,.121.346.138.138,0,0,0,.185-.029,5.185,5.185,0,0,0,.937-2.506.254.254,0,0,1,.207-.232l.207-.05a.083.083,0,0,1,.1.053l0,.029a5.6,5.6,0,0,1-.535,2.174c-.025.046-.246.31-.667.795a1.071,1.071,0,0,0-.1,1.18q.134.31.321.032c1.137-1.686,1.258-3.821,2.018-5.639q1.893-4.5,4.99-10.868a19.962,19.962,0,0,1,1.469-2.552,24.807,24.807,0,0,0,1.479-2.574c1.087-2.117,3.151-4.609,4.509-6.73.823-1.287,2.018-2.378,2.641-3.533a15.883,15.883,0,0,1,1.911-2.666,128.291,128.291,0,0,1,19.491-18.6,88.773,88.773,0,0,1,9.364-6.138.051.051,0,0,0,.025-.057l-.043-.182a.191.191,0,0,0-.225-.139l-.046.018a95.723,95.723,0,0,0-10.982,7.418A102.232,102.232,0,0,0,45.1,59.849a15.256,15.256,0,0,0-1.529,2.157,14.674,14.674,0,0,1-1.458,2.231q-2.652,3.32-5.653,7.585c-.043.064-.089.068-.146.011l-.175-.192a.3.3,0,0,1-.018-.385l6.577-9.086c.1-.132.064-.2-.1-.2a.6.6,0,0,0-.517.371A11.8,11.8,0,0,1,39.3,65.709a5.435,5.435,0,0,0-1.479,1.85q-.332.711-1.173,2.107a.94.94,0,0,1-.453.378A2.294,2.294,0,0,0,35.026,71.1a.426.426,0,0,0,.071.56.961.961,0,0,0,.677.328.345.345,0,0,1,.349.346.352.352,0,0,1-.053.189l-2.513,4.024a.348.348,0,0,1-.121.118,1.177,1.177,0,0,0-.6.927.858.858,0,0,1-.282.553,3.372,3.372,0,0,0-1.077,2.107q-.07.487-.15.5c-.823.225-.995-.014-.52-.709a22.341,22.341,0,0,1,1.682-2.848c.984-1.141,1.365-2.83,2.8-4.138a.442.442,0,0,0,.082-.56.7.7,0,0,0-.257-.289.749.749,0,0,0-.923.192l-.952,1.037c-.036.039-.046.075-.025.107a.131.131,0,0,0,.089.057.218.218,0,0,1,.15.221M257.16,43.263l-1.176-1.39a1.191,1.191,0,0,0-2.046-.036A117.036,117.036,0,0,0,232.116,75.8a45.9,45.9,0,0,0-2.545,8.277c-1.183,5.525-2.228,17.231,7.635,14.351a32.926,32.926,0,0,0,11.282-5.956,76.151,76.151,0,0,0,23.526-30.948c2.517-6.074,4.057-13.435,2.338-20-.93-3.536-5.678-3.518-8.387-2.46a34.208,34.208,0,0,0-7.817,4.32.724.724,0,0,1-.987-.121M202.173,55.347a1.394,1.394,0,0,0,.531-.164q3.876-2.4,7.96-5.09a9.261,9.261,0,0,0,1.925-1.843l.007.007-.039.046a.366.366,0,0,1-.068.086q-1.358,1.075-1.654,1.251-4.785,2.951-9.56,5.971c-.435.274-.421.321.046.135a1.58,1.58,0,0,0,.307-.182,1.257,1.257,0,0,1,.545-.217m7.806-6.391c.093-.114.068-.15-.068-.107a1.477,1.477,0,0,0-.688.471c-.26.3-.214.36.139.2a2.092,2.092,0,0,0,.617-.56m-2.691,1.693a14.578,14.578,0,0,0,1.319-.877c.4-.317.381-.353-.068-.107q-4.8,2.636-10.213,4.951c-2.795,1.194-6.27,2.224-8.911,3.294-.253.107-.242.178.025.214a3.014,3.014,0,0,0,1.294-.132,69.706,69.706,0,0,0,16.554-7.343m71.335.257c0-.257-.046-.264-.139-.025a5.187,5.187,0,0,0-.4,1.458c-.011.356.064.385.228.089a3.023,3.023,0,0,0,.307-1.522m-12.6,28.3a62.092,62.092,0,0,0,4.851-7.076,17.06,17.06,0,0,0,1.362-2.018q1.251-3.139,1.5-3.622a32.318,32.318,0,0,0,2.944-6.987q.722-3.326,1.6-6.605c0-.021,0-.032-.018-.036l-.185-.071a.133.133,0,0,0-.192.1q-.941,2.978-2.178,6.94a19.461,19.461,0,0,1-1.073,2.481c-.592,1.194-.706,2.584-1.554,3.607a3.188,3.188,0,0,0-.617,1.034,9.77,9.77,0,0,1-1.857,3.415c-.506.585-.6,1.458-1.037,2.167a98.92,98.92,0,0,1-11.834,15.043,56.565,56.565,0,0,1-14.184,11.246q-1.112.631.064.121a27.9,27.9,0,0,0,5.126-2.912,80.576,80.576,0,0,0,17.281-16.825m13.282-25.4a.112.112,0,0,0,.071.061l.036-.007a.028.028,0,0,0-.011-.036c-.1-.075-.132-.082-.1-.018m-73.559.585.4-.221q.765-.417-.121-.207a.658.658,0,0,0-.378.267q-.112.16.1.16m2.2.189a.631.631,0,0,1,.171.018c.068.018.1-.025.107-.121a.3.3,0,0,0-.05-.157.083.083,0,0,0-.132-.036,1.046,1.046,0,0,0-.16.15.093.093,0,0,0,.011.125l.053.021m-8.3,4.609a.282.282,0,0,0,.075.339.193.193,0,0,0,.235.043.175.175,0,0,0,.064-.235l-.039-.046a.434.434,0,0,0-.335-.1,1.075,1.075,0,0,1,.549-.706.634.634,0,0,0,.353-.389c.16-.5.506-.645,1.037-.442a.465.465,0,0,0,.513-.118,3.1,3.1,0,0,1,1.864-.788.876.876,0,0,0,.528-.282,1.128,1.128,0,0,1,.962-.41.156.156,0,0,0,.157-.082c.05-.089.078-.143.089-.168a.232.232,0,0,0-.146-.321l-.995-.41c-.353-.143-.463-.018-.331.378.014.05.082.061.192.032.228-.068.25-.025.071.125a.387.387,0,0,1-.485.057.413.413,0,0,0-.51.032,9.067,9.067,0,0,1-2.574.823c-.478.111-.873-.132-1.4.2a45.11,45.11,0,0,1-5.119,2.4c-.364.171-.349.289.05.353a5.588,5.588,0,0,0,2.228-.139.757.757,0,0,0,.471-.321A2.805,2.805,0,0,1,198.68,57.9a.119.119,0,0,1,.157.068l.068.171a.1.1,0,0,1-.057.15l-.759.335c-.264.111-.3.271-.089.478a1.245,1.245,0,0,0,1.647.082m7.19-2.581a.2.2,0,0,0,.114-.111c.046-.1.014-.153-.1-.153s-.164.025-.189.064c-.15.235-.093.3.171.2m-3.051,1.412a1.128,1.128,0,0,0,.952-.317c.192-.153.168-.253-.078-.3a1.1,1.1,0,0,0-.955.321c-.171.153-.143.253.082.3m-16.508.346a.123.123,0,0,0-.043.168.105.105,0,0,0,.05.046.685.685,0,0,0,.766-.089c.153-.118.139-.2-.05-.253a.909.909,0,0,0-.724.128m79.85,33.147a.464.464,0,0,0,.014-.2.24.24,0,0,0-.321-.107l-.039.025a7.078,7.078,0,0,0-2.246,2.634,1.023,1.023,0,0,1-.41.442,3.89,3.89,0,0,0-1.44,1.54c-.143.26-.086.31.164.157a24.171,24.171,0,0,0,3.358-2.5c1.012-.905,2.057-2.346,3.422-3.39a.473.473,0,0,0,.182-.517,1.075,1.075,0,0,1,0-.413.5.5,0,0,1,.389-.41,1.7,1.7,0,0,0,.93-.5c.036-.043.029-.075-.018-.1a1.03,1.03,0,0,1-.146-.068c-.139-.075-.157-.182-.057-.317,1.3-1.772,2.795-2.834,4.007-5.047a1.045,1.045,0,0,1,.467-.446l.314-.153a.656.656,0,0,0,.307-.307l.674-1.461a.589.589,0,0,1,.453-.349.69.69,0,0,0,.585-.681,1.143,1.143,0,0,1,.214-.542l1.094-1.508a.455.455,0,0,0,.089-.289,1.261,1.261,0,0,1,.121-.624,28.581,28.581,0,0,0,2.691-6.352q.118-.465,1.283-3.778a34.615,34.615,0,0,0,1.69-7.364c.046-.385.018-.392-.089-.014a90.9,90.9,0,0,1-3.112,9.421.566.566,0,0,1-.41.4.362.362,0,0,0-.274.3,5.746,5.746,0,0,1-1.315,2.567.271.271,0,0,0,.014.356l.118.128q.027.021.043,0l1.148-1.44c.125-.16.146-.146.068.036l-2.231,5.115a.132.132,0,0,1-.107.086l-.371.064c-.093.018-.118-.018-.078-.107l1.3-2.624a.226.226,0,0,0-.1-.3.2.2,0,0,0-.078-.021l-.175-.029a.214.214,0,0,0-.214.128,20.331,20.331,0,0,1-2.139,3.711c-.592.8-.734,1.754-1.408,2.6q-1.134,1.438-1.308,1.729a30.481,30.481,0,0,1-2.8,4c-1.183,1.383-1.754,3.055-3.358,4.324a1.122,1.122,0,0,0-.453.556,3.869,3.869,0,0,1-.235.692c-.16.392-.086.446.228.157l.421-.392c.114-.1.164-.078.146.071l-.025.232a.278.278,0,0,1-.132.2,1.868,1.868,0,0,0-.716.684c-.16.339-.2.339-.121-.007M39.995,63.193c-.435.46-1.269.838-1.433,1.572-.078.364.021.424.307.189a10.37,10.37,0,0,0,2.1-2.463.1.1,0,0,0-.025-.146l-.121-.082h-.032a9.9,9.9,0,0,1-.791.93m192.827,2.8a8.247,8.247,0,0,0-1.975,3.347.129.129,0,0,0,.089.182l.157.057.011-.007.706-1.953a.82.82,0,0,1,.371-.449,4.158,4.158,0,0,0,1.137-1.055.6.6,0,0,0,.107-.553,1.3,1.3,0,0,1,.214-.97q.663-1.182,1.358-2.338c.014-.025,0-.046-.036-.064l-.046-.011a.112.112,0,0,0-.135.025,6.536,6.536,0,0,0-1.686,3.283,1.049,1.049,0,0,1-.271.506m46.461-.553-.478.656c-.1.15-.071.2.1.139a.857.857,0,0,0,.513-.731.075.075,0,0,0-.036-.1.077.077,0,0,0-.1.036M37.592,67.3l-.007-.018L37.5,67.15a.117.117,0,0,0-.2-.011,11.133,11.133,0,0,0-2.067,2.834.135.135,0,0,0-.007.132.236.236,0,0,0,.05.071c.032.021.068.007.1-.039Zm194.727,1.415a.65.65,0,0,0-.075.178c-.021.242.043.282.2.118a1.142,1.142,0,0,0,.328-.57c.071-.371-.007-.424-.235-.164a.817.817,0,0,0-.143.264,1.839,1.839,0,0,1-.075.175m-1.3,1.786a.9.9,0,0,0,.082.524.188.188,0,0,0,.257.071l.032-.021q.342-.31.235-.545a.394.394,0,0,0-.3-.253.27.27,0,0,0-.3.221v0m45.883.987a20.129,20.129,0,0,0-2,3.536,16.886,16.886,0,0,1-2,3.472c-1.914,2.463-3.932,5.8-6.113,8.427q-3.668,4.411-4.4,5.315c-1.034,1.283-2.574,2.4-3.7,3.825h-.014l.05-.064a.377.377,0,0,1,.046-.064c1.123-1.094,2.267-1.818,3.361-3.055q5.309-6.015,6.12-7.208,2.518-3.7,4.68-6.723c1.764-2.477,2.98-5.653,4.552-8.1a.088.088,0,0,0-.007-.121.207.207,0,0,0-.164-.05.136.136,0,0,0-.107.068c-.132.246-.118.5-.3.741m-90.591.189a99.533,99.533,0,0,1,11.339.656.215.215,0,0,0,.114-.41,1.6,1.6,0,0,0-.271-.082,50.7,50.7,0,0,0-11.182-.973,50.526,50.526,0,0,0-11.189.937,1.6,1.6,0,0,0-.271.082.213.213,0,0,0,.121.406,99.6,99.6,0,0,1,11.339-.617m43.766-.421a.359.359,0,0,0-.082.364.248.248,0,0,0,.31.175.307.307,0,0,0,.118-.071.324.324,0,0,0-.007-.453c-.11-.146-.221-.153-.339-.014M205,73.687a.183.183,0,0,0-.135-.217l-6.281-1.486a.183.183,0,0,0-.217.135l0,.014a.178.178,0,0,0,.135.217l6.281,1.486A.183.183,0,0,0,205,73.7ZM230.13,72.5a.89.89,0,0,0-.567.036.229.229,0,0,0-.078.317l.021.029a.565.565,0,0,0,.3.2.318.318,0,0,0,.307-.039.639.639,0,0,0,.185-.282.206.206,0,0,0-.135-.257l-.029-.007m-70.116,19.9a1.436,1.436,0,0,0,.677-2,.673.673,0,0,1,.05-.567,2.83,2.83,0,0,0,.435-1.64c-.029-.367-.128-.389-.3-.064q-1.155,2.246-1.7,3.055a20.307,20.307,0,0,0-1.672,3.033,59.388,59.388,0,0,1-3.148,5.935,16.369,16.369,0,0,0-1.094,2.788,4.4,4.4,0,0,1-1.087,1.611,4.7,4.7,0,0,0-1.208,1.608q-1.374,4.315-1.968,4.926a6.523,6.523,0,0,0-1.665,3,.181.181,0,0,0,.264.207c2.092-1.169,4.363-1.665,6.534-2.6q9.828-4.219,11.51-4.894a9.7,9.7,0,0,1,2.773-.6.124.124,0,0,0,.125-.164v-.007a.126.126,0,0,0-.171-.114A55.032,55.032,0,0,0,156.61,109.9a24.493,24.493,0,0,1-2.513.731c-.235.061-.3-.018-.2-.239a1.214,1.214,0,0,1,.649-.7q14.811-5.561,17.955-6.894,9.352-3.962,17.381-7.906a130.264,130.264,0,0,0,18.012-10.84,19.514,19.514,0,0,0,3.422-3.272q1.631-1.936-.453-3.262a21.4,21.4,0,0,0-5.618-2.427,54.569,54.569,0,0,0-10.594-1.843,95.747,95.747,0,0,0-20.062.428,1.148,1.148,0,0,0-.9.667Q167.076,88.813,162.567,97.9q-.016.037-2.164,3.91a24.6,24.6,0,0,0-2.224,5.457c-.021.086-.082.118-.178.1h-.007c-.1-.014-.128-.071-.1-.178a52.281,52.281,0,0,1,1.593-5.283,3.608,3.608,0,0,0,.257-1.654c-.021-.289-.121-.317-.3-.082a4.841,4.841,0,0,1-1.244,1.248q-1.262.749-.567-.542.781-1.454,1.679-3.2.315-.615-.364-1.251a.535.535,0,0,1-.178-.51,1.708,1.708,0,0,1,.56-.948.527.527,0,0,0,.164-.328l.214-1.818a.506.506,0,0,1,.3-.428m68.668-17.923L227.1,79.836a.2.2,0,0,0,.114.257l.175.089a.168.168,0,0,0,.221-.075l.007-.021q.615-1.968,1.6-4.623a1.607,1.607,0,0,0,.057-.456,1.662,1.662,0,0,0-.032-.46q-.31-.93-.567-.075m42.935,13.7a15.34,15.34,0,0,0,3.714-3.8q1.053-1.561-.267-.217a15.981,15.981,0,0,1-1.422,1.754q-1.182.941-2.3,2a.093.093,0,0,0,.007.164l.143.1a.1.1,0,0,0,.121,0M64.341,98.967a13.056,13.056,0,0,0,3.4-1.4q6.448-3.914,12.943-7.753c1.779-1.052,4.049-1.864,5.529-2.656a.718.718,0,0,0,.413-.649c.011-.274-.107-.346-.346-.214-1.144.631-2.438.962-3.472,1.586q-9.3,5.577-16.664,10.152a12.98,12.98,0,0,1-1.825.884c-.2.086-.189.1.021.046M97.431,91.2l2.46-1.077a1.524,1.524,0,0,0,.781-.741l.378-.766c.175-.364.078-.46-.289-.3a4.652,4.652,0,0,0-2.021,1.419,5.492,5.492,0,0,1-1.351,1.387.044.044,0,0,0,.043.075m173.129-1.24a.145.145,0,0,0-.057.192.087.087,0,0,0,.032.039.363.363,0,0,0,.346.082.172.172,0,0,0,.128-.21.177.177,0,0,0-.046-.078.312.312,0,0,0-.4-.025m-6.438,5.832a3.668,3.668,0,0,0-1.134.6,40.326,40.326,0,0,1-3.868,3.322c-.41.307-.7.831-1.137,1.162q-3.6,2.711-6.038,4.245c-.574.364-.563.389.039.068a40.492,40.492,0,0,0,6.848-4.563l3.828-3.133q.048-.037,3.176-2.3a17.156,17.156,0,0,0,3.629-3.557.052.052,0,0,0,0-.075l-.15-.185c-.057-.061-.111-.061-.157.007a15.9,15.9,0,0,1-3.907,3.836,5.6,5.6,0,0,1-1.13.581M188.56,107.732a58.719,58.719,0,0,1-6.113,2.848,1.8,1.8,0,0,0-.467.157,35.753,35.753,0,0,1-6.537,2.837c-.057.018-.071.05-.046.1s.068.078.114.057q10.528-4.133,18.953-8.181a101.755,101.755,0,0,0,14.622-9.239c.57-.413,1.494-1.194,2.763-2.331.068-.064.071-.114.014-.153l-.007-.007c-.064-.036-.114-.043-.153-.018a139.035,139.035,0,0,1-23.141,13.93M160.849,95.827c-.282.453-.905.905-.909,1.547-.007.31.089.346.289.1a8.62,8.62,0,0,0,1.294-2.4q.032-.08-.043-.107l-.114-.053-.025.007a8.894,8.894,0,0,1-.492.905M189.5,99.192c-2.363,1.216-5.219,2.47-7.81,3.647-.032.014-.05.064-.057.153s.046.1.153.061q3.962-1.7,7.842-3.6,3.812-2.053,7.5-4.281c.1-.057.107-.111.036-.157s-.128-.061-.157-.043c-2.467,1.426-5.151,3.012-7.511,4.224M24.649,99.128a13.3,13.3,0,0,1-.282,1.447.024.024,0,0,0,.018.025l.171.05a.108.108,0,0,0,.15-.078,12.318,12.318,0,0,0,.763-3.814c.007-.442-.128-.492-.41-.15-.574.706-.3,1.775-.41,2.52m237.181-2.72c-.071-.071-.424.157-.784.513s-.6.7-.52.777.424-.153.784-.51.6-.706.52-.781m-196.762.727c.178-.053.153-.132-.068-.239-.043-.018-.118,0-.228.064s-.1.1,0,.157a.34.34,0,0,0,.3.018m116.794,3.975q-3.24,1.513-6.534,3a10.126,10.126,0,0,0-1.315.716c-.1.068-.118.125-.043.175h0c.082.05.139.071.171.057q3.893-1.877,7.842-3.672,3.919-1.877,7.863-3.647c.032-.018.053-.071.068-.164V97.57c.011-.089-.039-.114-.157-.075a9.446,9.446,0,0,0-1.4.545q-3.256,1.561-6.5,3.069m-22.275-1.95c-.05.264.021.3.214.114a1.633,1.633,0,0,0,.421-.585c.075-.278,0-.339-.228-.182a1,1,0,0,0-.406.652m-70.96-.485a1.028,1.028,0,0,0-.585.246c-.282.3-.217.353.189.178a1.852,1.852,0,0,0,.467-.285c.128-.121.107-.168-.071-.139m114.324,5.443a1.148,1.148,0,0,0-.959.5.43.43,0,0,0-.082.324c.064.214.192.267.385.153.92-.528,2.477-1.144,2.345-2.442-.007-.1-.061-.135-.157-.118l-.257.043a.265.265,0,0,0-.221.246c-.007.271-.014.417-.018.438q-.2.882-.631.139c-.221-.371-.053-.7.51-.966a.112.112,0,0,0,.057-.164l-.064-.146a.1.1,0,0,0-.135-.064q-1.2.39-1.027,1.454.011.075.331.353c.175.146.146.228-.078.246M181.388,103.1a17.961,17.961,0,0,0-3.946,1.807,8.96,8.96,0,0,0,2.028-.784,8.8,8.8,0,0,0,1.918-1.023m20.536.774.356-.089a.143.143,0,0,0,.121-.2l-.089-.339c-.029-.125-.1-.16-.214-.1q-2.925,1.551-3.383,1.779a18.179,18.179,0,0,0-3.094,2.132,17.758,17.758,0,0,1-3.825,2.467q-1.15.529-11.1,4.652-2.556,1.064-3.1,1.372a1.093,1.093,0,0,1-.585.15c-.624,0-1.4.624-1.818.781q-3.695,1.374-7.34,2.845c-.1.036-.121.093-.075.168a.116.116,0,0,0,.157.057,165.783,165.783,0,0,0,16.861-6.2q4.16-1.9,7.539-3.2a32.433,32.433,0,0,0,4.605-2.035q1.759-1.069,4.377-2.5a.735.735,0,0,0,.381-.4,1.072,1.072,0,0,0-.05-.781.411.411,0,0,1,.192-.545l.078-.025m-25.13,1.212c-.121.068-.114.107.025.121a.612.612,0,0,0,.332-.075c.31-.168.285-.225-.075-.164a.947.947,0,0,0-.282.118m-3.707.289a.161.161,0,0,0-.214-.086l-13.1,5.778a.164.164,0,0,0-.086.214l.018.036a.162.162,0,0,0,.214.082l13.1-5.775a.168.168,0,0,0,.086-.217Zm-3.262.442.171.032c.039,0,.071-.021.093-.075a.172.172,0,0,0,.018-.064c-.007-.1-.053-.132-.143-.089l-.157.071c-.128.057-.121.1.018.125m-99.837,7.218a8.257,8.257,0,0,0-.791.36c-.217.135-.21.153.032.064a6.21,6.21,0,0,0,2.356-1.39,7.686,7.686,0,0,1,1.454-1.019q2.78-1.5,5.664-2.944a.183.183,0,0,0,.1-.264l-.075-.175a.176.176,0,0,0-.271-.1,64.322,64.322,0,0,0-5.792,3.279c-.681.456-1.547,1.722-2.673,2.192m98.81-4.26c-.018-.046-.235-.011-.488.078s-.442.2-.428.242.235.011.488-.078.442-.2.428-.242m-2.452,10.519c.036.15.171.2.41.164.15-.032.2-.114.132-.253a.333.333,0,0,0-.114-.146q-.567-.374-.428.235m-53.12,14.857a.167.167,0,0,0-.075-.221l-.078-.039a.162.162,0,0,0-.217.075l-8.751,17.32a.167.167,0,0,0,.071.221l.078.039a.165.165,0,0,0,.221-.071ZM102.8,144.166a.289.289,0,0,0-.068.15c-.018.178.046.214.189.1a.747.747,0,0,0,.321-.51c.032-.356-.046-.4-.242-.125a2.1,2.1,0,0,0-.16.314.279.279,0,0,1-.039.071m.478,2.47c0,.1.021.1.075.025a1.849,1.849,0,0,0,.378-.87c.014-.317-.053-.339-.2-.061a2.321,2.321,0,0,0-.257.905m-1.6,6.987a.426.426,0,0,0-.093.15c-.068.228-.011.274.168.146a1.754,1.754,0,0,0,.774-1.191c.036-.239-.036-.274-.214-.111a2.054,2.054,0,0,0-.513.809.786.786,0,0,1-.121.2" transform="translate(24.692 38.019)" fill="#000"/>
      <path id="Path_75" data-name="Path 75" d="M132.811,16.3c.043-.542.31-.749.806-.624a.223.223,0,0,1,.164.271.242.242,0,0,1-.025.064.807.807,0,0,1-.813.46.141.141,0,0,1-.132-.171" transform="translate(340.603 40.115)" fill="#fcfcfc"/>
      <path id="Path_76" data-name="Path 76" d="M42.248,16.1a1.431,1.431,0,0,1,1.932.467,1.646,1.646,0,0,1-2.905,1.269,1.436,1.436,0,0,1,.973-1.736" transform="translate(105.654 40.849)" fill="#fcfcfc"/>
      <path id="Path_77" data-name="Path 77" d="M3.535,16.056q.134-.107,1.233,1.126a.283.283,0,0,1,.068.257.286.286,0,0,1-.1.157.245.245,0,0,1-.178.057.273.273,0,0,1-.235-.125c-.62-.905-.88-1.4-.788-1.472" transform="translate(9.019 41.155)" fill="#fcfcfc"/>
      <path id="Path_78" data-name="Path 78" d="M14.839,16.106a.478.478,0,1,1-.478.478.478.478,0,0,1,.478-.478" transform="translate(36.83 41.305)" fill="#fcfcfc"/>
      <path id="Path_79" data-name="Path 79" d="M18,16.4a.265.265,0,0,1,.356-.111.272.272,0,0,1,.089.078c.242.328.225.563-.057.713a.272.272,0,0,1-.332-.071A.494.494,0,0,1,18,16.4" transform="translate(45.96 41.701)" fill="#fcfcfc"/>
      <path id="Path_80" data-name="Path 80" d="M134.573,17.062a.3.3,0,0,1,.267-.332l.036,0c.5-.007.727.192.677.6a.368.368,0,0,1-.421.314.607.607,0,0,1-.56-.577" transform="translate(345.121 42.897)" fill="#fcfcfc"/>
      <path id="Path_81" data-name="Path 81" d="M8.786,17.139a.27.27,0,0,1,.364.1c.246.428.121.731-.364.913a.352.352,0,0,1-.453-.207.357.357,0,0,1-.007-.228,1.023,1.023,0,0,1,.46-.577" transform="translate(21.314 43.868)" fill="#fcfcfc"/>
      <path id="Path_82" data-name="Path 82" d="M15.79,17.695a.507.507,0,1,1-.745.638.507.507,0,1,1,.745-.638" transform="translate(38.114 44.714)" fill="#fcfcfc"/>
      <path id="Path_83" data-name="Path 83" d="M134.23,18.119a.675.675,0,1,1-1.02,0,.723.723,0,0,1,1.02,0" transform="translate(341.261 45.936)" fill="#fcfcfc"/>
      <path id="Path_84" data-name="Path 84" d="M58.039,20.233c.132-.264.253-.274.36-.032a.257.257,0,0,1-.1.328c-.146.121-.242.089-.278-.1a.27.27,0,0,1,.018-.2" transform="translate(148.775 51.361)" fill="#fcfcfc"/>
      <path id="Path_85" data-name="Path 85" d="M6.322,20.649l.253-.467a.136.136,0,0,1,.242.121,6.107,6.107,0,0,1-.574,1.052c-.1.157-.207.239-.3.239a1.906,1.906,0,0,0-.221.011c-.21.018-.26-.075-.157-.274a4.322,4.322,0,0,1,.413-.3,1.2,1.2,0,0,0,.346-.385" transform="translate(14.132 51.572)" fill="#fcfcfc"/>
      <path id="Path_86" data-name="Path 86" d="M45.388,24.052a2.02,2.02,0,0,1-2.7.766,2.022,2.022,0,0,1-.018-2.805,2.02,2.02,0,0,1,2.7-.766,2.018,2.018,0,0,1,.018,2.805" transform="translate(108.025 53.794)" fill="#fcfcfc"/>
      <path id="Path_87" data-name="Path 87" d="M3.932,21.059a.289.289,0,1,1-.289.289.288.288,0,0,1,.289-.289" transform="translate(9.343 54.007)" fill="#fcfcfc"/>
      <path id="Path_88" data-name="Path 88" d="M10.14,21.645a1.444,1.444,0,0,1,2.032.078,1.448,1.448,0,0,1-.381,2,1.448,1.448,0,0,1-2.032-.082,1.445,1.445,0,0,1,.381-2" transform="translate(24.372 54.544)" fill="#fcfcfc"/>
      <path id="Path_89" data-name="Path 89" d="M4.379,21.828c.235-.232.506-.339.6-.242s-.021.364-.257.6-.506.335-.6.239.021-.36.257-.592" transform="translate(10.485 55.266)" fill="#fcfcfc"/>
      <path id="Path_90" data-name="Path 90" d="M5.4,22.544c.41.4.549.774.413,1.126-.1.274-.257.314-.478.114a2.182,2.182,0,0,1-.481-2.16c.007-.061.039-.078.1-.05l.239.114a.087.087,0,0,1,.057.1l-.032.257a.581.581,0,0,0,.182.5" transform="translate(12.237 55.295)" fill="#fcfcfc"/>
      <path id="Path_91" data-name="Path 91" d="M134.08,21.794a.421.421,0,1,1-.421.421.421.421,0,0,1,.421-.421" transform="translate(342.781 55.892)" fill="#fcfcfc"/>
      <path id="Path_92" data-name="Path 92" d="M9.906,27.207a.2.2,0,0,1,.007.164.114.114,0,0,0,.068.146l.025,0,.342.039a.428.428,0,0,0,.421-.182l.67-.93a.257.257,0,0,1,.36-.057l.171.125q.139.1.011.214a6.871,6.871,0,0,0-1.7,2.388.338.338,0,0,0,.178.446.321.321,0,0,0,.1.029.629.629,0,0,0,.774-.681.243.243,0,0,1,.339-.214.187.187,0,0,1,.125.146c.1.5-.128.834-.692,1.012a.6.6,0,0,0-.4.378l-.064.182a.346.346,0,0,0,.153.453.9.9,0,0,1,.438,1.019c-.036.171-.135.221-.3.15-.324-.139-.471-.317-.431-.535a1.214,1.214,0,0,0-.781-1.315c-.264-.107-.463.025-.592.4a.4.4,0,0,1-.228.246L7.842,31.3a.291.291,0,0,1-.274-.032L5.956,30.105a.246.246,0,0,1-.1-.15.7.7,0,0,1-.032-.175c.014-.246.139-.356.378-.335a1.211,1.211,0,0,0,.2-.011c.2-.025.2-.071.018-.139l-2.171-.774A1.076,1.076,0,0,1,3.6,27.147a1.059,1.059,0,0,1,.139-.267L5.19,24.872a.248.248,0,0,0-.05-.342.253.253,0,0,0-.121-.046L4.7,24.445a.247.247,0,0,0-.267.221l0,.032a2.02,2.02,0,0,1-.05.684.559.559,0,0,1-.356.417.488.488,0,0,1-.346-.018.415.415,0,0,1-.292-.474.941.941,0,0,1,.656-.848.332.332,0,0,0,.25-.421.946.946,0,0,1,.029-.435c.061-.21.214-.289.453-.232a.537.537,0,0,1,.3.282.3.3,0,0,0,.417.1.25.25,0,0,0,.068-.053,1.366,1.366,0,0,0,.289-.667.274.274,0,0,0-.271-.371l-.56-.061c-.31-.039-.356-.171-.143-.4a.794.794,0,0,1,.264-.182.389.389,0,0,1,.51.157c.335.478.809.524,1.422.132a.242.242,0,0,1,.328.078.257.257,0,0,1,.036.135.727.727,0,0,1-.064.278.3.3,0,0,0,.221.485,2.028,2.028,0,0,0,1.351,0,.44.44,0,0,1,.542.164l.749,1.126c.207.3.125.463-.246.478l-.56.018a.269.269,0,0,0-.26.274.212.212,0,0,0,.021.1c.157.367.577.535,1.265.5.242-.007.321.1.239.328a1,1,0,0,1-.478.517c-.264.153-.367.3-.3.421" transform="translate(8.666 56.385)" fill="#fcfcfc"/>
      <path id="Path_93" data-name="Path 93" d="M6.721,24.6a8.706,8.706,0,0,0-.413.92c-.157.389-.253.374-.292-.039a2.105,2.105,0,0,1,.139-1.2,2.179,2.179,0,0,1,.955-.741c.381-.182.446-.1.189.232a7.083,7.083,0,0,0-.577.831" transform="translate(15.372 60.109)" fill="#fcfcfc"/>
      <path id="Path_94" data-name="Path 94" d="M6.542,23.742a.129.129,0,0,1,.071-.171l.053-.011a.926.926,0,0,1,.667.257c.153.178.118.3-.1.378-.278.1-.506-.05-.692-.453" transform="translate(16.752 60.421)" fill="#fcfcfc"/>
      <path id="Path_95" data-name="Path 95" d="M3.509,25.451a1.018,1.018,0,0,1-.413-1.5.433.433,0,0,1,.577-.2.441.441,0,0,1,.221.246,2.378,2.378,0,0,1-.021,1.294c-.046.221-.168.278-.364.164" transform="translate(7.509 60.79)" fill="#fcfcfc"/>
      <path id="Path_96" data-name="Path 96" d="M129.256,24.6a1.016,1.016,0,0,1,.339,1.422c-.314.617-.52,1.012-.62,1.194-.731,1.315-2.025,1.351-3.069.346a.683.683,0,0,1-.21-.6c.26-2,1.429-3.928,3.561-2.363" transform="translate(322.342 61.617)" fill="#fcfcfc"/>
      <path id="Path_97" data-name="Path 97" d="M134.067,24.447a.462.462,0,0,1,.492-.132c.381.125.524.346.428.659a.345.345,0,0,1-.478.26c-.613-.175-.759-.435-.442-.788" transform="translate(343.41 62.297)" fill="#fcfcfc"/>
      <path id="Path_98" data-name="Path 98" d="M130.506,24.414c.371-.118.581.053.642.517a.534.534,0,0,1-.46.6.468.468,0,0,1-.1,0q-.759-.043-.749-.353a.907.907,0,0,1,.667-.766" transform="translate(332.984 62.519)" fill="#fcfcfc"/>
      <path id="Path_99" data-name="Path 99" d="M6.185,24.966a.278.278,0,0,1,.374-.118l.029.018q.209.144.043.428a.261.261,0,0,1-.274.125c-.25-.057-.307-.21-.171-.453" transform="translate(15.68 63.645)" fill="#fcfcfc"/>
      <path id="Path_100" data-name="Path 100" d="M133.409,25.126a.2.2,0,0,1,.282.046l.025.053a.543.543,0,0,1,0,.46c-.246.378-.431.332-.56-.139-.036-.125.05-.264.257-.421" transform="translate(341.462 64.341)" fill="#fcfcfc"/>
      <path id="Path_101" data-name="Path 101" d="M131.656,25.777a.467.467,0,1,1-.709.118.514.514,0,0,1,.709-.118" transform="translate(335.687 65.879)" fill="#fcfcfc"/>
      <path id="Path_102" data-name="Path 102" d="M80.4,27.575A2.6,2.6,0,0,1,82.1,26.192a.709.709,0,0,1,.588.125l1.1.8a.346.346,0,0,1,.125.467,5.974,5.974,0,0,1-1.144,1.879c-1.444,1.486-3.162-.513-2.36-1.886" transform="translate(205.677 67.125)" fill="#fcfcfc"/>
      <path id="Path_103" data-name="Path 103" d="M28.742,26.608a.307.307,0,0,1,.342-.271l.043.007c.349.089.56.232.627.435a.351.351,0,0,1-.228.442.344.344,0,0,1-.1.014c-.506,0-.731-.214-.681-.627" transform="translate(73.694 67.536)" fill="#fcfcfc"/>
      <path id="Path_104" data-name="Path 104" d="M29.053,28.168h0a1.608,1.608,0,0,1,.481,2.224l-.349.542a1.61,1.61,0,1,1-2.706-1.747l.349-.538a1.608,1.608,0,0,1,2.224-.481" transform="translate(67.252 71.579)" fill="#fcfcfc"/>
      <path id="Path_105" data-name="Path 105" d="M133.366,28.946a.457.457,0,1,1-.756-.5.456.456,0,1,1,.756.5" transform="translate(339.841 72.309)" fill="#fcfcfc"/>
      <path id="Path_106" data-name="Path 106" d="M7.947,28.82a.45.45,0,1,1-.8.392.45.45,0,1,1,.8-.392" transform="translate(18.174 73.134)" fill="#fcfcfc"/>
      <path id="Path_107" data-name="Path 107" d="M32.856,29.758c-.121.328-.4.528-.627.446s-.307-.417-.185-.745.4-.531.627-.446.307.417.185.745" transform="translate(82.034 74.356)" fill="#fcfcfc"/>
      <path id="Path_108" data-name="Path 108" d="M134.929,29.125a.383.383,0,1,1-.385.385.386.386,0,0,1,.385-.385" transform="translate(345.05 74.693)" fill="#fcfcfc"/>
      <path id="Path_109" data-name="Path 109" d="M.528,29.21A.528.528,0,1,1,0,29.738a.526.526,0,0,1,.528-.528" transform="translate(0 74.911)" fill="#fcfcfc"/>
      <path id="Path_110" data-name="Path 110" d="M28.163,29.458a1.015,1.015,0,0,1,.446-.228q1.021.155.214.749c-.146.11-.364.071-.652-.111a.244.244,0,0,1-.075-.339.216.216,0,0,1,.068-.071" transform="translate(71.952 74.962)" fill="#fcfcfc"/>
      <path id="Path_111" data-name="Path 111" d="M67.956,29.992a.485.485,0,0,1,.246-.182c.221-.039.26.064.114.307a.278.278,0,0,1-.246.128.151.151,0,0,1-.114-.253" transform="translate(174.179 76.429)" fill="#fcfcfc"/>
      <path id="Path_112" data-name="Path 112" d="M26.277,30.3a.392.392,0,0,1,.485-.114c.5.242.734.456.692.642a.723.723,0,0,1-.891.535.791.791,0,0,1-.3-.143c-.289-.221-.285-.524.018-.92" transform="translate(66.798 77.301)" fill="#fcfcfc"/>
      <path id="Path_113" data-name="Path 113" d="M83.144,30.369c.025-.025.053-.036.064-.025s0,.036-.029.061-.053.036-.064.025,0-.036.029-.061" transform="translate(213.148 77.809)" fill="#fcfcfc"/>
      <path id="Path_114" data-name="Path 114" d="M82.944,30.7l.246-.228a.13.13,0,0,1,.185.007.133.133,0,0,1,.029.139c-.114.324-.26.428-.442.314a.147.147,0,0,1-.043-.2l.025-.029" transform="translate(212.593 78.05)" fill="#fcfcfc"/>
      <path id="Path_115" data-name="Path 115" d="M77.535,30.557a.873.873,0,1,1-.873.873.875.875,0,0,1,.873-.873" transform="translate(196.607 78.366)" fill="#fcfcfc"/>
      <path id="Path_116" data-name="Path 116" d="M127.755,31.245c.064-.1.125-.139.189-.132.331.032.364.153.1.36a.226.226,0,0,1-.168.043.17.17,0,0,1-.15-.192.209.209,0,0,1,.029-.078" transform="translate(327.564 79.791)" fill="#fcfcfc"/>
      <path id="Path_117" data-name="Path 117" d="M130.628,34.716a.8.8,0,0,1-.143-1.119l0-.007,1.044-1.326a1.757,1.757,0,1,1,2.763,2.164l-1.044,1.333a.8.8,0,0,1-1.119.132Z" transform="translate(334.212 80.869)" fill="#fcfcfc"/>
      <path id="Path_118" data-name="Path 118" d="M129.455,32.266l-3.351.567a.1.1,0,0,1-.128-.071l-.075-.16a.14.14,0,0,1,.071-.185l.05-.011a31.15,31.15,0,0,0,3.237-.46.972.972,0,0,1,.6.043.692.692,0,0,1,.471.688c-.011.2-.082.217-.207.068l-.3-.339a.372.372,0,0,0-.371-.139" transform="translate(322.853 81.857)" fill="#fcfcfc"/>
      <path id="Path_119" data-name="Path 119" d="M77.138,32.2a.261.261,0,0,1,.342-.128.307.307,0,0,1,.093.071q.144.187-.032.492a.223.223,0,0,1-.307.078.2.2,0,0,1-.053-.043.408.408,0,0,1-.043-.471" transform="translate(197.689 82.199)" fill="#fcfcfc"/>
      <path id="Path_120" data-name="Path 120" d="M25.346,34.453a.46.46,0,0,1-.585-.282l-.182-.531a1.126,1.126,0,0,1,.617-1.465l.068-.025a1.128,1.128,0,0,1,1.394.763l0,.007.182.528a.461.461,0,0,1-.282.585Z" transform="translate(62.85 82.312)" fill="#fcfcfc"/>
      <path id="Path_121" data-name="Path 121" d="M85.043,34.156c.271-.567.328-1.479.955-1.886.307-.2.4-.128.285.217A10.337,10.337,0,0,1,84.729,35.3a.1.1,0,0,1-.146.032l-.118-.082-.007-.025a12.013,12.013,0,0,0,.585-1.069" transform="translate(216.6 82.473)" fill="#fcfcfc"/>
      <path id="Path_122" data-name="Path 122" d="M84.214,33.518c.143-.3.307-.446.492-.446s.228.071.125.232l-.346.51c-.364.192-.456.093-.271-.3" transform="translate(215.736 84.815)" fill="#fcfcfc"/>
      <path id="Path_123" data-name="Path 123" d="M4.434,34.132a.843.843,0,0,1-.456,1.091.844.844,0,0,1-.987-.652.843.843,0,0,1,.456-1.091.844.844,0,0,1,.987.652" transform="translate(7.547 85.791)" fill="#fcfcfc"/>
      <path id="Path_124" data-name="Path 124" d="M15.175,35.347l.9-1.825c.068-.132.143-.135.228-.011l.207.314a.453.453,0,0,1,.039.421,2.647,2.647,0,0,1-1.233,1.24q-.289.155-.139-.139" transform="translate(38.786 85.709)" fill="#fcfcfc"/>
      <path id="Path_125" data-name="Path 125" d="M20.7,34.79c-.207.214-.5.271-.649.125s-.1-.435.107-.649a.484.484,0,0,1,.649-.128c.15.146.1.438-.107.652" transform="translate(51.201 87.346)" fill="#fcfcfc"/>
      <path id="Path_126" data-name="Path 126" d="M15.22,34.157a.214.214,0,0,1,.378.15,1.222,1.222,0,0,1-.228.606.209.209,0,0,1-.292.064.227.227,0,0,1-.071-.071q-.171-.3.214-.749" transform="translate(38.349 87.402)" fill="#fcfcfc"/>
      <path id="Path_127" data-name="Path 127" d="M14.878,35.194a2.009,2.009,0,0,1,.314-.52c.228-.228.314-.185.26.125-.071.406-.21.617-.41.634s-.25-.068-.164-.239" transform="translate(38.056 88.553)" fill="#fcfcfc"/>
      <path id="Path_128" data-name="Path 128" d="M15.608,36.982c-.353,1.009-.813,1.768-1.027,1.693s-.1-.955.257-1.964.813-1.768,1.023-1.693.1.955-.253,1.964" transform="translate(37.119 89.792)" fill="#fcfcfc"/>
      <path id="Path_129" data-name="Path 129" d="M32.919,35.226c.078-.071.139-.057.175.043a.19.19,0,0,1,0,.185.149.149,0,0,1-.225.068c-.114-.061-.1-.157.05-.3" transform="translate(84.106 90.225)" fill="#fcfcfc"/>
      <path id="Path_130" data-name="Path 130" d="M82.754,35.452a.083.083,0,0,1,.1.053.071.071,0,0,1-.007.053.236.236,0,0,1-.157.132c-.118.043-.153.007-.11-.107a.236.236,0,0,1,.175-.132" transform="translate(211.738 90.912)" fill="#fcfcfc"/>
      <path id="Path_131" data-name="Path 131" d="M29.616,36.861A10.665,10.665,0,0,1,31.886,35.6a10.862,10.862,0,0,1-2.1,1.522,10.914,10.914,0,0,1-2.267,1.262,10.688,10.688,0,0,1,2.1-1.526" transform="translate(70.564 91.289)" fill="#fcfcfc"/>
      <path id="Path_132" data-name="Path 132" d="M34.744,35.716h.018l.139.093a.122.122,0,0,1,.018.2,11.584,11.584,0,0,1-2.937,2.246.134.134,0,0,1-.135.011.179.179,0,0,1-.078-.057c-.018-.032-.007-.068.039-.107Z" transform="translate(81.451 91.596)" fill="#fcfcfc"/>
      <path id="Path_133" data-name="Path 133" d="M32.228,36.757q-.289.214-1.162,1.005a.036.036,0,0,1-.053-.011l0-.032a3.81,3.81,0,0,1,2.485-1.85.039.039,0,0,1,.032.043l-.007.021c-.667.406-1.1.681-1.29.823" transform="translate(79.525 91.989)" fill="#fcfcfc"/>
      <path id="Path_134" data-name="Path 134" d="M131.375,36.428a.793.793,0,0,1,.642.2.4.4,0,0,1,0,.56.339.339,0,0,1-.1.071.689.689,0,0,1-.67-.043.419.419,0,0,1-.21-.506.385.385,0,0,1,.335-.282" transform="translate(336.021 93.412)" fill="#fcfcfc"/>
      <path id="Path_135" data-name="Path 135" d="M82.413,37.689c-.585.606-1.13,1.034-1.212.955s.328-.638.913-1.244,1.13-1.034,1.212-.955-.328.638-.913,1.244" transform="translate(208.222 93.441)" fill="#fcfcfc"/>
      <path id="Path_136" data-name="Path 136" d="M1.193,37.562a.437.437,0,0,1,.15-.05c.428-.086.638.114.624.6a.369.369,0,0,1-.385.4.708.708,0,0,1-.659-.36c-.143-.221-.053-.417.271-.585" transform="translate(2.197 96.152)" fill="#fcfcfc"/>
      <path id="Path_137" data-name="Path 137" d="M127.651,40.98a2.492,2.492,0,0,1,1.611-3.422.7.7,0,0,1,.585.007,5.337,5.337,0,0,1,2.509,2.007,1.1,1.1,0,0,1-.342,1.483l-1.96,1.3a.515.515,0,0,1-.52.046q-1.658-.733-1.882-1.422" transform="translate(326.87 96.164)" fill="#fcfcfc"/>
      <path id="Path_138" data-name="Path 138" d="M52.507,37.784l.014-.007.168.025c.1.021.139.078.114.171a11.862,11.862,0,0,1-1.647,3.383.149.149,0,0,1-.121.075.205.205,0,0,1-.093-.018c-.036-.021-.039-.057-.021-.114Z" transform="translate(130.564 96.882)" fill="#fcfcfc"/>
      <path id="Path_139" data-name="Path 139" d="M50.215,39.082a.3.3,0,0,1,.381-.192.3.3,0,0,1,.139.1.626.626,0,0,1,.139.52.25.25,0,0,1-.289.2.256.256,0,0,1-.132-.064.56.56,0,0,1-.239-.567" transform="translate(128.739 99.694)" fill="#fcfcfc"/>
      <path id="Path_140" data-name="Path 140" d="M51.04,39.168c.068-.05.128-.089.182-.121.143-.086.207-.046.189.121a.66.66,0,0,1-.52.6c-.417.128-.52,0-.31-.371.014-.029.089-.068.232-.11a.941.941,0,0,0,.228-.121" transform="translate(129.446 100.025)" fill="#fcfcfc"/>
      <path id="Path_141" data-name="Path 141" d="M50.574,40.509a1.412,1.412,0,0,1-.428-.706q-.016-.3.364-.428a.317.317,0,0,1,.4.207.278.278,0,0,1,.014.078,1.681,1.681,0,0,1-.107.809c-.057.132-.139.143-.239.039" transform="translate(128.604 100.947)" fill="#fcfcfc"/>
      <path id="Path_142" data-name="Path 142" d="M43.746,40.824c-.257.446-.577.741-.716.663s-.043-.506.214-.952.577-.741.716-.663.043.506-.214.952" transform="translate(110.194 102.223)" fill="#fcfcfc"/>
      <path id="Path_143" data-name="Path 143" d="M9.445,43.623c-.937,1.148-2.388,1.519-3.244.82s-.784-2.192.153-3.34,2.388-1.519,3.244-.82.784,2.192-.153,3.34" transform="translate(14.373 102.403)" fill="#fcfcfc"/>
      <path id="Path_144" data-name="Path 144" d="M50.406,42.148c.253-.592.271-1.533.895-1.989.31-.217.41-.143.307.221a10.632,10.632,0,0,1-1.479,2.962.089.089,0,0,1-.143.032L49.86,43.3l-.014-.025a10.68,10.68,0,0,0,.56-1.126" transform="translate(127.835 102.68)" fill="#fcfcfc"/>
      <path id="Path_145" data-name="Path 145" d="M63.31,40.7c.663-.392,1.269-.6,1.347-.463s-.4.56-1.059.952-1.269.6-1.347.463.4-.56,1.059-.952" transform="translate(159.627 103.071)" fill="#fcfcfc"/>
      <path id="Path_146" data-name="Path 146" d="M49.808,40.4c.1-.1.164-.086.182.05a.345.345,0,0,1-.182.385c-.128.068-.171.032-.125-.1a2.652,2.652,0,0,1,.125-.335" transform="translate(127.37 103.454)" fill="#fcfcfc"/>
      <path id="Path_147" data-name="Path 147" d="M49.711,41.311c-.128.192-.292.31-.364.264s-.029-.246.1-.438.292-.31.364-.264.025.246-.1.438" transform="translate(126.465 104.794)" fill="#fcfcfc"/>
      <path id="Path_148" data-name="Path 148" d="M50.59,41.777c.1,0,.121.032.057.114a1.073,1.073,0,0,1-.574.381c-.478.121-.542.05-.193-.217a1.213,1.213,0,0,1,.709-.278" transform="translate(127.355 107.14)" fill="#fcfcfc"/>
      <path id="Path_149" data-name="Path 149" d="M49.46,42.24a5.95,5.95,0,0,1,.97-.3c.221-.05.26.014.11.189a1.262,1.262,0,0,1-1.037.36c-.4-.011-.413-.093-.043-.253" transform="translate(126.161 107.526)" fill="#fcfcfc"/>
      <path id="Path_150" data-name="Path 150" d="M49.635,42.437l-.7.121a.14.14,0,0,1-.157-.118.145.145,0,0,1,.039-.118.9.9,0,0,1,.809-.207.164.164,0,0,1,.007.321" transform="translate(125.098 107.97)" fill="#fcfcfc"/>
      <path id="Path_151" data-name="Path 151" d="M127.755,42.174a1.115,1.115,0,1,1-1.2,1.233,1.23,1.23,0,0,1,1.2-1.233" transform="translate(324.535 108.133)" fill="#fcfcfc"/>
      <path id="Path_152" data-name="Path 152" d="M126.578,44.526c-.175.225-.424.324-.556.221s-.1-.367.078-.592.424-.324.556-.221.1.367-.078.592" transform="translate(322.991 112.568)" fill="#fcfcfc"/>
      <path id="Path_153" data-name="Path 153" d="M131.091,44.423a.325.325,0,0,1,.378-.164c.178.046.246.2.2.46a.3.3,0,0,1-.335.246c-.328-.046-.406-.228-.239-.542" transform="translate(335.977 113.473)" fill="#fcfcfc"/>
      <path id="Path_154" data-name="Path 154" d="M65.879,44.814a.457.457,0,1,1-.086.681.488.488,0,0,1,.086-.681" transform="translate(168.471 114.562)" fill="#fcfcfc"/>
      <path id="Path_155" data-name="Path 155" d="M3.523,44.991a.46.46,0,1,1-.46.46.461.461,0,0,1,.46-.46" transform="translate(7.855 115.383)" fill="#fcfcfc"/>
      <path id="Path_156" data-name="Path 156" d="M129.934,45.16a.318.318,0,0,1,.438-.071.313.313,0,0,1,.107.139.74.74,0,0,1,.046.26.329.329,0,0,1-.321.332.4.4,0,0,1-.114-.018c-.328-.114-.378-.328-.157-.642" transform="translate(332.882 115.485)" fill="#fcfcfc"/>
      <path id="Path_157" data-name="Path 157" d="M119.586,45.867c-.178.307-.4.513-.488.46s-.025-.346.15-.656.4-.51.488-.456.028.346-.15.652" transform="translate(305.331 115.936)" fill="#fcfcfc"/>
      <path id="Path_158" data-name="Path 158" d="M118.3,45.967c-.135.3-.339.5-.449.446s-.089-.335.05-.631.339-.5.449-.442.086.332-.05.627" transform="translate(302.058 116.254)" fill="#fcfcfc"/>
      <path id="Path_159" data-name="Path 159" d="M105.267,46.039c.239.289.335.6.217.7s-.406-.061-.645-.349-.335-.606-.217-.7.406.061.645.349" transform="translate(268.184 117.101)" fill="#fcfcfc"/>
      <path id="Path_160" data-name="Path 160" d="M92.5,46.139a.518.518,0,0,1,.731-.043c.271.242.4.438.381.592a.521.521,0,0,1-.652.41.729.729,0,0,1-.221-.071c-.474-.242-.552-.538-.239-.888" transform="translate(236.748 117.882)" fill="#fcfcfc"/>
      <path id="Path_161" data-name="Path 161" d="M117.457,48.016c.314-.627.577-1.08.9-1.779.143-.307.264-.317.367-.032.25.724-.531,1.44-1.091,1.943-.285.257-.342.21-.175-.132" transform="translate(300.99 117.968)" fill="#fcfcfc"/>
      <path id="Path_162" data-name="Path 162" d="M79.892,50.745c-1.119.617-1.754-.214-2.278-.895a.663.663,0,0,1-.125-.577c.289-1.2,1.34-3.03,2.741-2.823q.743.112,1.169,1.134a1.969,1.969,0,0,1-.339,1.654,4.028,4.028,0,0,1-1.169,1.508" transform="translate(198.677 119.082)" fill="#fcfcfc"/>
      <path id="Path_163" data-name="Path 163" d="M104.216,47.282a.093.093,0,0,1,.007.1.486.486,0,0,1-.642.2.307.307,0,0,1-.2-.253c-.039-.267.007-.421.146-.453a.447.447,0,0,1,.528.157Z" transform="translate(265.09 120.167)" fill="#fcfcfc"/>
      <path id="Path_164" data-name="Path 164" d="M110.549,50.3a1,1,0,0,1-.16-1.422c.381-.556.631-.916.749-1.073a1.752,1.752,0,0,1,3.012.036.654.654,0,0,1,.125.606c-.488,1.911-1.861,3.629-3.725,1.854" transform="translate(282.519 120.449)" fill="#fcfcfc"/>
      <path id="Path_165" data-name="Path 165" d="M118.58,47.321a.547.547,0,1,1-.57.877.548.548,0,1,1,.57-.877" transform="translate(301.685 120.981)" fill="#fcfcfc"/>
      <path id="Path_166" data-name="Path 166" d="M9.8,47.8h0a1.5,1.5,0,0,1,.4,2.078l-.471.7A1.5,1.5,0,0,1,7.246,48.9l.474-.7A1.5,1.5,0,0,1,9.8,47.8" transform="translate(17.924 121.937)" fill="#fcfcfc"/>
      <path id="Path_167" data-name="Path 167" d="M46.5,47.749a.438.438,0,0,1,.2.032.2.2,0,0,1,.075.307,1,1,0,0,1-.239.253.2.2,0,0,1-.282-.036l-.018-.029a.441.441,0,0,1,0-.346.243.243,0,0,1,.26-.182" transform="translate(118.485 122.456)" fill="#fcfcfc"/>
      <path id="Path_168" data-name="Path 168" d="M107.279,49.084c.6.8,1,1.522.891,1.6s-.692-.5-1.294-1.3-1-1.522-.891-1.6.692.5,1.294,1.3" transform="translate(271.762 122.522)" fill="#fcfcfc"/>
      <path id="Path_169" data-name="Path 169" d="M80.138,48.385a1.769,1.769,0,0,1,.114.232.281.281,0,0,1-.157.36l-.05.011c-.4.05-.667-.068-.788-.356a.337.337,0,0,1,.178-.438l.029-.007c.328-.1.553-.032.674.2" transform="translate(203.197 123.46)" fill="#fcfcfc"/>
      <path id="Path_170" data-name="Path 170" d="M82.835,48.422a.311.311,0,1,1-.071.5.366.366,0,0,1,.071-.5" transform="translate(212.074 123.789)" fill="#fcfcfc"/>
      <path id="Path_171" data-name="Path 171" d="M125.567,48.811c0,.339-.086.528-.239.567a.585.585,0,0,1-.692-.385c-.075-.217.021-.4.3-.56a.423.423,0,0,1,.577.157.435.435,0,0,1,.057.221" transform="translate(319.579 124.064)" fill="#fcfcfc"/>
      <path id="Path_172" data-name="Path 172" d="M30.974,50.668l.4.51a.618.618,0,0,1-.107.866.532.532,0,0,1-.107.064l-.57.282a.618.618,0,0,0-.3.321l-.239.592a.616.616,0,0,1-.8.342,1.078,1.078,0,0,1-.111-.057l-.535-.36a.6.6,0,0,0-.428-.093l-.634.086a.616.616,0,0,1-.7-.528.719.719,0,0,1,0-.125l.039-.634a.625.625,0,0,0-.128-.424l-.4-.506a.618.618,0,0,1,.111-.866,1.034,1.034,0,0,1,.1-.068l.574-.282a.626.626,0,0,0,.3-.321l.242-.592a.614.614,0,0,1,.8-.339.443.443,0,0,1,.107.057l.535.356a.608.608,0,0,0,.428.1l.634-.089a.616.616,0,0,1,.7.528.515.515,0,0,1,0,.128l-.036.635a.619.619,0,0,0,.125.421" transform="translate(67.248 124.36)" fill="#fcfcfc"/>
      <path id="Path_173" data-name="Path 173" d="M95.968,49.447a1.208,1.208,0,0,1-.446-.577c-.111-.332.011-.478.356-.442l.246.032a.294.294,0,0,1,.289.353,1.328,1.328,0,0,1-.132.567.211.211,0,0,1-.289.082l-.025-.014" transform="translate(244.875 124.183)" fill="#fcfcfc"/>
      <path id="Path_174" data-name="Path 174" d="M68.742,50.729a1.527,1.527,0,0,1,.716-.093c.278.053.346.2.2.446a1.337,1.337,0,0,1-1.066.684c-.264.029-.331.16-.207.389l.153.285a.255.255,0,0,0,.346.111.28.28,0,0,0,.093-.078c.16-.225.307-.332.442-.321.264.014.324.135.185.356a2.247,2.247,0,0,0-.339,1.037c-.018.278.107.371.367.278a1.467,1.467,0,0,0,.774-.731c.082-.15.185-.164.307-.036l.121.132a.146.146,0,0,1,.025.168,1.9,1.9,0,0,1-.706.852.764.764,0,0,0-.335.488c-.356,1.629-2.167,4.392-4.3,3.836a1.568,1.568,0,0,1-.934-.827,5.825,5.825,0,0,0-1.5-1.782,1.08,1.08,0,0,1-.274-1.465.936.936,0,0,1,.349-.3c.282-.132.438-.531.471-1.194a.217.217,0,0,0-.2-.235.228.228,0,0,0-.175.064,3.207,3.207,0,0,0-.905,2,.8.8,0,0,1-.431.624l-.246.114c-.353.171-.478.068-.371-.31a2.59,2.59,0,0,0,.018-1.369.453.453,0,0,1,.214-.549,16.482,16.482,0,0,1,1.818-1.037,7.012,7.012,0,0,0,2.577-1.95c.549-.528,1.536-.5,2.146-1.005a5.423,5.423,0,0,0,.667-.674.034.034,0,0,1,.05,0l.139.146a.112.112,0,0,1-.014.182,1.586,1.586,0,0,0-.585,1.5c.028.242.164.328.4.257" transform="translate(157.139 124.713)" fill="#fcfcfc"/>
      <path id="Path_175" data-name="Path 175" d="M80.566,49.789a.862.862,0,0,1-.228.246.333.333,0,0,1-.349.007c-.56-.328-.734-.613-.531-.855a1.574,1.574,0,0,1,1.875-.335c.093.043.157.168.2.371a.3.3,0,0,1-.289.4A.6.6,0,0,1,81,49.618a.4.4,0,0,0-.435.171" transform="translate(203.567 124.854)" fill="#fcfcfc"/>
      <path id="Path_176" data-name="Path 176" d="M83.14,48.967a2,2,0,0,1-.039.549c-.029.2-.143.267-.339.207a.436.436,0,0,1-.168-.1.316.316,0,0,1-.1-.285.8.8,0,0,1,.171-.371c.25-.307.41-.307.478,0" transform="translate(211.548 124.991)" fill="#fcfcfc"/>
      <path id="Path_177" data-name="Path 177" d="M98.023,56.937l-3.2-3.786a2.083,2.083,0,0,1,.028-2.723c.709-.82,1.337-2.132,2.855-1.087a.583.583,0,0,0,.57.05,2.212,2.212,0,0,0,.624-.51c.2-.21.324-.175.389.107a2.165,2.165,0,0,0,.945,1.262.472.472,0,0,1,.207.46l-.05.417a.388.388,0,0,0,.381.488c.21.029.428-.143.649-.513a.345.345,0,0,1,.246-.178.309.309,0,0,1,.189.032.191.191,0,0,1,.118.221l-.107.948a.6.6,0,0,0,.2.535.469.469,0,0,1,.039.684.682.682,0,0,0-.1.606,1.707,1.707,0,0,1-.6,1.711,22.34,22.34,0,0,1-2.766,2.353,1.127,1.127,0,0,1-1.019.217c-.6-.178-.948-.431-1.044-.752a.3.3,0,0,1,.2-.374.235.235,0,0,1,.121-.011l.995.114c.278.032.324-.057.143-.271m-.973-5.874a.994.994,0,0,0,.446.667.32.32,0,0,0,.435-.1l.018-.043a1.117,1.117,0,0,1,1.34-.766.277.277,0,0,0,.332-.214.4.4,0,0,0,0-.114.733.733,0,0,0-.185-.413.288.288,0,0,0-.471.007,1.686,1.686,0,0,1-1.244.553c-.253,0-.367-.121-.346-.371a.682.682,0,0,1,.068-.282c.157-.25.118-.41-.114-.485a.529.529,0,0,0-.513.15,5.093,5.093,0,0,0-1.251,1.529.087.087,0,0,0,.011.1l.114.132c.068.086.132.078.2-.011a1.561,1.561,0,0,1,.741-.556c.225-.086.367-.014.421.221" transform="translate(241.918 125.013)" fill="#fcfcfc"/>
      <path id="Path_178" data-name="Path 178" d="M73.836,48.989a.661.661,0,1,1-.977.207.71.71,0,0,1,.977-.207" transform="translate(186.668 125.359)" fill="#fcfcfc"/>
      <path id="Path_179" data-name="Path 179" d="M61.229,49.447a.944.944,0,0,1,.706-.089c.274.089.314.239.121.453a.641.641,0,0,1-.838.146.286.286,0,0,1-.125-.381.279.279,0,0,1,.135-.128" transform="translate(156.603 126.493)" fill="#fcfcfc"/>
      <path id="Path_180" data-name="Path 180" d="M61.417,50.012l-.4.6c-.121.189-.228.182-.314-.025a.478.478,0,0,1,.029-.4c.143-.3.285-.471.428-.52.417-.143.5-.029.253.346" transform="translate(155.609 127.222)" fill="#fcfcfc"/>
      <path id="Path_181" data-name="Path 181" d="M73.442,50.04l.421.043a.3.3,0,0,1,.3.36,1.093,1.093,0,0,1-.082.328.371.371,0,0,1-.471.214.786.786,0,0,1-.5-.556.306.306,0,0,1,.214-.378.35.35,0,0,1,.121-.011" transform="translate(187.461 128.328)" fill="#fcfcfc"/>
      <path id="Path_182" data-name="Path 182" d="M60.882,50.242a.247.247,0,0,1,.331-.1.343.343,0,0,1,.078.064.534.534,0,0,1,.082.688.312.312,0,0,1-.428.071l-.046-.039a.544.544,0,0,1-.018-.681" transform="translate(155.859 128.514)" fill="#fcfcfc"/>
      <path id="Path_183" data-name="Path 183" d="M70.412,51.58a.7.7,0,0,1,.146.98l-.888,1.2a1.7,1.7,0,0,1-2.285.606l-.111-.089a1.69,1.69,0,0,1-.089-2.36l.888-1.194a.7.7,0,0,1,.98-.15Z" transform="translate(171.203 129.357)" fill="#fcfcfc"/>
      <path id="Path_184" data-name="Path 184" d="M12.54,51.33a.322.322,0,0,1,.121-.438h0l.171-.1c.731-.4,1.5-.392,1.729.018l.075.132c.225.413-.182,1.069-.913,1.472l-.168.1a.325.325,0,0,1-.438-.121l0-.007Z" transform="translate(32.053 129.509)" fill="#fcfcfc"/>
      <path id="Path_185" data-name="Path 185" d="M54.83,53.376a1.7,1.7,0,1,1-2.855-1.647,1.7,1.7,0,1,1,2.855,1.647" transform="translate(132.393 129.601)" fill="#fcfcfc"/>
      <path id="Path_186" data-name="Path 186" d="M112.076,50.538a.674.674,0,1,1-.674.674.675.675,0,0,1,.674-.674" transform="translate(285.701 129.609)" fill="#fcfcfc"/>
      <path id="Path_187" data-name="Path 187" d="M22.836,50.924a.271.271,0,1,1-.271.271.271.271,0,0,1,.271-.271" transform="translate(57.87 130.599)" fill="#fcfcfc"/>
      <path id="Path_188" data-name="Path 188" d="M19.646,51.818a.469.469,0,1,1-.257-.7.536.536,0,0,1,.257.7" transform="translate(48.077 131.059)" fill="#fcfcfc"/>
      <path id="Path_189" data-name="Path 189" d="M61.879,51.71c.41.239.659.581.553.766s-.528.135-.937-.1-.659-.581-.553-.766.528-.135.937.1" transform="translate(156.227 132.065)" fill="#fcfcfc"/>
      <path id="Path_190" data-name="Path 190" d="M88.438,51.542a.413.413,0,0,1,.581.093.4.4,0,0,1,.078.3l-.043.41a.212.212,0,0,1-.271.207l-.446-.05a.352.352,0,0,1-.307-.392l.011-.046a1,1,0,0,1,.4-.517" transform="translate(225.759 131.977)" fill="#fcfcfc"/>
      <path id="Path_191" data-name="Path 191" d="M10.588,51.721c.128-.014.246.078.346.278a.361.361,0,0,1-.093.488c-.178.153-.328.178-.449.082-.592-.485-.524-.77.2-.848" transform="translate(25.628 132.639)" fill="#fcfcfc"/>
      <path id="Path_192" data-name="Path 192" d="M93.427,53.245a.619.619,0,1,1-.681-.649.67.67,0,0,1,.681.649" transform="translate(236.466 134.88)" fill="#fcfcfc"/>
      <path id="Path_193" data-name="Path 193" d="M34.893,54.217c-.171.11-.267.064-.282-.139a1.294,1.294,0,0,1,.563-1.365c.228-.132.367-.068.424.2a1.257,1.257,0,0,1-.706,1.308" transform="translate(88.734 135.016)" fill="#fcfcfc"/>
      <path id="Path_194" data-name="Path 194" d="M26.894,53.782a.743.743,0,1,1-.542-1.03.834.834,0,0,1,.542,1.03" transform="translate(65.275 135.259)" fill="#fcfcfc"/>
      <path id="Path_195" data-name="Path 195" d="M16.05,52.828a.3.3,0,0,1,.371.15.525.525,0,0,1,0,.4.362.362,0,0,1-.232.253.6.6,0,0,1-.467-.1c-.235-.157-.246-.328-.036-.517a.95.95,0,0,1,.364-.189" transform="translate(39.846 135.439)" fill="#fcfcfc"/>
      <path id="Path_196" data-name="Path 196" d="M65.379,53.407a.487.487,0,0,1,.289-.46c.267-.114.478,0,.631.335.2.431.064.7-.4.8-.328.075-.5-.15-.52-.674" transform="translate(167.67 135.676)" fill="#fcfcfc"/>
      <path id="Path_197" data-name="Path 197" d="M18.892,52.948a.453.453,0,1,1-.453.453.453.453,0,0,1,.453-.453" transform="translate(47.289 135.789)" fill="#fcfcfc"/>
      <path id="Path_198" data-name="Path 198" d="M60.365,53.737a.4.4,0,1,1-.738-.257.4.4,0,1,1,.738.257" transform="translate(152.826 136.205)" fill="#fcfcfc"/>
      <path id="Path_199" data-name="Path 199" d="M115.964,56.889l-.567-.264c-.246-.114-.271-.264-.075-.446l3.069-2.845a.729.729,0,0,1,.51-.2,5.055,5.055,0,0,1,2.288.528.884.884,0,0,1,.421.446l.7,1.6a.677.677,0,0,1-.132.741,8.079,8.079,0,0,0-1.8,2.812.4.4,0,0,1-.4.285l-2.766.086a.369.369,0,0,1-.41-.3l-.5-2.032a.585.585,0,0,0-.339-.41" transform="translate(295.421 136.269)" fill="#fcfcfc"/>
      <path id="Path_200" data-name="Path 200" d="M35.376,53.193q.214.15-.627,1.447a.321.321,0,1,1-.524-.367q.93-1.235,1.151-1.08" transform="translate(87.541 136.374)" fill="#fcfcfc"/>
      <path id="Path_201" data-name="Path 201" d="M111.629,53.978a.458.458,0,1,1-.025-.731.529.529,0,0,1,.025.731" transform="translate(284.098 136.396)" fill="#fcfcfc"/>
      <path id="Path_202" data-name="Path 202" d="M35.137,54.213c-.217.435-.339.67-.36.7-.153.217-.235.2-.242-.057a1.7,1.7,0,0,1,.168-.863,1.738,1.738,0,0,1,.6-.645c.214-.143.278-.089.189.16q-.021.053-.353.706" transform="translate(88.561 136.613)" fill="#fcfcfc"/>
      <path id="Path_203" data-name="Path 203" d="M83.33,53.583a.485.485,0,1,1-.485.485.485.485,0,0,1,.485-.485" transform="translate(212.464 137.418)" fill="#fcfcfc"/>
      <path id="Path_204" data-name="Path 204" d="M46.514,53.639a1.385,1.385,0,1,1-1.408,1.515,1.465,1.465,0,0,1,1.408-1.515" transform="translate(115.665 137.543)" fill="#fcfcfc"/>
      <path id="Path_205" data-name="Path 205" d="M83.554,54.082a.238.238,0,0,1,.36.043.328.328,0,0,1-.025.449.272.272,0,0,1-.349.05c-.264-.164-.257-.346.014-.542" transform="translate(213.75 138.537)" fill="#fcfcfc"/>
      <path id="Path_206" data-name="Path 206" d="M102.69,55.841a1.346,1.346,0,1,1-.859-1.8,1.42,1.42,0,0,1,.859,1.8" transform="translate(256.599 138.45)" fill="#fcfcfc"/>
      <path id="Path_207" data-name="Path 207" d="M71.381,54.816a.233.233,0,0,1,.078-.321.224.224,0,0,1,.178-.025.653.653,0,0,1,.5.61.2.2,0,0,1-.171.228.23.23,0,0,1-.118-.021,1.237,1.237,0,0,1-.47-.471" transform="translate(182.974 139.671)" fill="#fcfcfc"/>
      <path id="Path_208" data-name="Path 208" d="M84.395,54.855a1.808,1.808,0,0,1,.617-.032.318.318,0,0,1,.307.385,1.1,1.1,0,0,1-.057.221.272.272,0,0,1-.342.175l-.032-.014-.542-.242a.261.261,0,0,1-.139-.339.266.266,0,0,1,.189-.153" transform="translate(215.904 140.563)" fill="#fcfcfc"/>
      <path id="Path_209" data-name="Path 209" d="M82.55,54.952a.415.415,0,1,1-.413.414.414.414,0,0,1,.413-.414" transform="translate(210.648 140.929)" fill="#fcfcfc"/>
      <path id="Path_210" data-name="Path 210" d="M14.851,55.3a.465.465,0,1,1-.467.467.466.466,0,0,1,.467-.467" transform="translate(36.889 141.826)" fill="#fcfcfc"/>
      <path id="Path_211" data-name="Path 211" d="M73.895,55.979a.488.488,0,1,1-.274-.674.514.514,0,0,1,.274.674" transform="translate(187.08 141.77)" fill="#fcfcfc"/>
      <path id="Path_212" data-name="Path 212" d="M23.663,56.22a.585.585,0,1,1-.217-.859.631.631,0,0,1,.217.859" transform="translate(57.82 141.842)" fill="#fcfcfc"/>
      <path id="Path_213" data-name="Path 213" d="M34.718,55.644c.5.948.413,1.675-.239,2.189-.349.271-.46.2-.339-.228Z" transform="translate(87.434 142.703)" fill="#fcfcfc"/>
      <path id="Path_214" data-name="Path 214" d="M51.339,62.059a.3.3,0,0,1-.264.132l-2.3-.082a.435.435,0,0,1-.413-.378,5.265,5.265,0,0,0-.9-2.239.558.558,0,0,1,.046-.684l2.274-2.559a.671.671,0,0,1,.617-.239l1.839.221a.566.566,0,0,1,.414.242,6.865,6.865,0,0,1,.995,2,.618.618,0,0,1-.1.549Z" transform="translate(121.462 143.628)" fill="#fcfcfc"/>
      <path id="Path_215" data-name="Path 215" d="M109.76,56.189a.278.278,0,0,1,.371-.064.453.453,0,0,1,.157.449.281.281,0,0,1-.118.217q-.348.246-.492-.16a.437.437,0,0,1,.082-.442" transform="translate(281.211 143.823)" fill="#fcfcfc"/>
      <path id="Path_216" data-name="Path 216" d="M105.057,56.5a.488.488,0,1,1-.745-.132.541.541,0,0,1,.745.132" transform="translate(267.15 144.3)" fill="#fcfcfc"/>
      <path id="Path_217" data-name="Path 217" d="M84.109,56.434c.207-.078.417-.039.463.089s-.082.292-.292.371-.414.039-.46-.089.082-.292.289-.371" transform="translate(214.939 144.626)" fill="#fcfcfc"/>
      <path id="Path_218" data-name="Path 218" d="M85.273,56.476a.975.975,0,0,1,.4-.057c.257.05.317.21.182.478a.557.557,0,0,1-.282.26.4.4,0,0,1-.428-.064.356.356,0,0,1-.107-.385.3.3,0,0,1,.232-.232" transform="translate(218.056 144.676)" fill="#fcfcfc"/>
      <path id="Path_219" data-name="Path 219" d="M22.746,56.786a.252.252,0,0,1,.317-.16.264.264,0,0,1,.118.078c.139.168.171.31.1.421a.259.259,0,0,1-.356.082l-.053-.043a.382.382,0,0,1-.125-.378" transform="translate(58.298 145.19)" fill="#fcfcfc"/>
      <path id="Path_220" data-name="Path 220" d="M105.768,56.826a.323.323,0,0,1,.435.007.506.506,0,0,1,.157.5c-.053.278-.2.41-.446.4a.277.277,0,0,1-.26-.2.612.612,0,0,1,.114-.709" transform="translate(270.813 145.528)" fill="#fcfcfc"/>
      <path id="Path_221" data-name="Path 221" d="M52.416,57.678a.133.133,0,0,1-.046.182.13.13,0,0,1-.143-.007.718.718,0,0,1-.378-.488.131.131,0,0,1,.089-.164.4.4,0,0,1,.171-.039c.036,0,.071.032.1.089Z" transform="translate(132.964 146.594)" fill="#fcfcfc"/>
      <path id="Path_222" data-name="Path 222" d="M58.672,57.251a.5.5,0,1,1-.5.5.5.5,0,0,1,.5-.5" transform="translate(149.18 146.825)" fill="#fcfcfc"/>
      <path id="Path_223" data-name="Path 223" d="M84.817,57.318q.08-.011.353.545c.107.228.043.374-.2.435a.4.4,0,0,1-.346-.018q-.989-.781.189-.962" transform="translate(215.881 146.996)" fill="#fcfcfc"/>
      <path id="Path_224" data-name="Path 224" d="M39.924,58.343a.39.39,0,0,1,.549-.057.437.437,0,0,1,.082.1.764.764,0,0,1,.082.449.349.349,0,0,1-.21.356.673.673,0,0,1-.285.064A.367.367,0,0,1,39.8,58.9a.83.83,0,0,1,.128-.56" transform="translate(102.057 149.255)" fill="#fcfcfc"/>
      <path id="Path_225" data-name="Path 225" d="M25.63,58.547a.476.476,0,1,1,.324.888.512.512,0,0,1-.667-.26.507.507,0,0,1,.342-.627" transform="translate(64.789 150.056)" fill="#fcfcfc"/>
      <path id="Path_226" data-name="Path 226" d="M53.567,59.494a1.177,1.177,0,0,1,.339.627c.05.257-.011.285-.182.089a2.854,2.854,0,0,1-.421-.553c-.1-.4-.014-.449.264-.164" transform="translate(136.597 152.117)" fill="#fcfcfc"/>
      <path id="Path_227" data-name="Path 227" d="M54.012,60.645a.49.49,0,1,1-.1-.763.553.553,0,0,1,.1.763" transform="translate(136.149 153.425)" fill="#fcfcfc"/>
      <path id="Path_228" data-name="Path 228" d="M82.895,60.485a.456.456,0,1,1,.4.8.456.456,0,1,1-.4-.8" transform="translate(211.733 154.94)" fill="#fcfcfc"/>
      <path id="Path_229" data-name="Path 229" d="M38.362,60.915a.269.269,0,0,1,.385.029.294.294,0,0,1,.05.078.766.766,0,0,1-.153.945.394.394,0,0,1-.553-.05.378.378,0,0,1-.075-.139.829.829,0,0,1,.346-.863" transform="translate(97.427 156.047)" fill="#fcfcfc"/>
      <path id="Path_230" data-name="Path 230" d="M25.735,60.969a.388.388,0,1,1-.2.577.438.438,0,0,1,.2-.577" transform="translate(65.369 156.122)" fill="#fcfcfc"/>
    </g>
  </g>
</svg>
